<?xml version="1.0" encoding="utf-8"?>
<!-- Generator: Adobe Illustrator 26.5.0, SVG Export Plug-In . SVG Version: 6.00 Build 0)  -->
<svg version="1.0" id="katman_1" xmlns="http://www.w3.org/2000/svg" xmlns:xlink="http://www.w3.org/1999/xlink" x="0px" y="0px"
	 viewBox="0 0 1190.55 841.89" style="enable-background:new 0 0 1190.55 841.89;" xml:space="preserve">
<style type="text/css">
	.st0{fill:#706F6E;}
	.st1{fill:url(#SVGID_1_);}
	.st2{fill:url(#SVGID_00000156550266927345205820000001271449848697311400_);}
	.st3{fill-rule:evenodd;clip-rule:evenodd;fill:#3C3C3B;}
	.st4{fill:url(#SVGID_00000000185256362914794290000005764988000964371072_);}
	.st5{fill:url(#SVGID_00000097498063236855192010000002717346109468435337_);}
</style>
<path class="st0" d="M278.2,450.67c-16.97,17.26-34.34,25.89-52.1,25.89c-5.16,0-10.12-0.66-14.88-1.99
	c-4.76-1.32-10.56-3.56-17.4-6.71c-6.84-3.15-12.87-5.44-18.1-6.87c-9.67,10.6-18.41,15.9-26.21,15.9c-2.72,0-4.98-0.89-6.77-2.68
	c-1.79-1.8-2.69-3.98-2.69-6.56c0-5.44,2.67-10.23,8-14.34c5.33-4.12,12.87-6.97,22.61-8.54c4.08-5.59,6.69-11.05,7.84-16.39
	c1.15-5.33,2.04-14.12,2.69-26.37c1.22-25.2,7.97-44.95,20.25-59.24c12.28-14.29,25.62-21.43,40.01-21.43
	c9.88,0,17.99,3.13,24.33,9.4c6.34,6.27,9.51,14.27,9.51,24.01c0,11.24-3.33,21.09-9.99,29.54c-6.66,8.45-14.32,12.67-22.99,12.67
	c-4.51,0-8.06-1.24-10.64-3.71s-3.87-5.86-3.87-10.15c0-2.22,0.43-4.8,1.29-7.74c1.93,2.22,4.37,3.33,7.3,3.33
	c4.86,0,9.13-2.9,12.78-8.7c3.65-5.8,5.48-12.71,5.48-20.74c0-6.16-1.4-11.01-4.19-14.56c-2.79-3.55-6.62-5.32-11.48-5.32
	c-5.87,0-10.43,2.11-13.69,6.34c-3.26,4.23-5.53,9.27-6.82,15.15c-1.29,5.87-2.66,15.36-4.12,28.47c-1.46,13.1-3.89,24.72-7.3,34.85
	c-3.42,10.13-9.79,20.07-19.13,29.8c6.09-0.43,11.37-0.07,15.84,1.08c4.47,1.14,10.88,3.31,19.23,6.49
	c8.34,3.19,15.52,4.78,21.53,4.78c11.74,0,22.95-6.01,33.62-18.04v12.35L278.2,450.67z M358.44,450.67
	c-9.1,8.95-17.26,15.56-24.49,19.82c-7.23,4.26-15.22,6.4-23.95,6.4c-9.74,0-17.6-3.11-23.58-9.34c-5.98-6.23-8.97-14.43-8.97-24.6
	c0-15.18,5.27-28.91,15.79-41.19c10.53-12.28,22.2-18.42,35.02-18.42c6.66,0,11.99,1.72,16.01,5.16c4.01,3.44,6.02,7.95,6.02,13.54
	c0,14.83-15.75,26.86-47.26,36.1c2.87,13.97,10.35,20.95,22.45,20.95c4.73,0,9.24-1.27,13.54-3.81s10.78-8.18,19.45-16.92v12.36
	L358.44,450.67z M302.15,430.8c18.33-5.16,27.5-14.68,27.5-28.58c0-6.88-2.51-10.31-7.52-10.31c-4.73,0-9.24,3.6-13.53,10.8
	C304.3,409.9,302.15,419.27,302.15,430.8L302.15,430.8z M473.17,450.67c-11.46,10.89-19.66,17.98-24.6,21.27
	c-4.94,3.29-9.67,4.94-14.18,4.94c-11.32,0-16.65-9.99-16.01-29.97c-7.16,10.24-13.76,17.8-19.81,22.67
	c-6.05,4.86-12.3,7.3-18.74,7.3c-6.3,0-11.65-2.96-16.06-8.87c-4.4-5.91-6.6-13.16-6.6-21.75c0-10.75,2.96-20.99,8.87-30.73
	c5.91-9.74,13.48-17.62,22.72-23.64c9.24-6.02,17.4-9.03,24.49-9.03c8.95,0,15.22,4.12,18.8,12.35l21.96-12.14h6.03l-9.47,31.48
	c-4.88,15.83-7.32,26.68-7.32,32.55c0,6.15,2.18,9.23,6.55,9.23c2.79,0,5.87-1.49,9.23-4.46c3.36-2.97,8.09-7.5,14.17-13.59v12.36
	L473.17,450.67z M394.53,456.58c7.16,0,13.91-6.1,20.25-18.31c6.34-12.21,9.51-23.47,9.51-33.78c0-4.01-0.9-7.14-2.69-9.4
	c-1.79-2.25-4.19-3.38-7.2-3.38c-7.16,0-13.95,6.09-20.36,18.27c-6.41,12.18-9.61,23.39-9.61,33.63c0,3.87,0.95,7,2.85,9.4
	c1.9,2.4,4.31,3.6,7.25,3.6L394.53,456.58z M560.29,450.68c-7.44,8.38-14.81,14.84-22.1,19.39c-7.3,4.55-13.81,6.82-19.53,6.82
	c-2.72,0-6.44-1.03-11.16-3.1c-3.02,15.75-5.68,32.76-7.98,51.01c-7.46,1.01-16.42,2.55-26.88,4.63
	c2.29-19.62,6.27-45.08,11.92-76.37c-0.79-1.36-2.19-4.79-4.19-10.31l-7.2,7.95h-2.47v-9.67l20.48-21.23
	c3.89-19.21,7.06-33.12,9.49-41.71c2.43-8.59,5.84-18.1,10.2-28.52c4.37-10.42,7.12-16.4,8.27-17.94c1.15-1.54,3.92-3.01,8.33-4.4
	c4.4-1.39,9.11-2.72,14.13-3.97c5.01-1.25,7.7-1.88,8.06-1.88c2.73,0,4.95,1.77,6.66,5.32c1.72,3.54,2.58,8.21,2.58,14.01
	c0,10.02-2.64,19.68-7.93,28.98s-15.29,20.74-30,34.33l-9.03,44.9c3.5,7.51,8.76,11.27,15.76,11.27c10.01,0,20.88-7.27,32.6-21.81
	v12.36L560.29,450.68z M524.21,389.45c8.37-7.31,14.94-15.16,19.7-23.58c4.76-8.42,7.14-16.17,7.14-23.26
	c0-3.01-0.55-5.48-1.66-7.41c-1.11-1.93-2.48-2.9-4.12-2.9c-3.14,0-6.34,4.12-9.59,12.36C532.43,352.9,528.61,367.83,524.21,389.45z
	 M631.29,450.68c-9.74,8.95-18.28,15.56-25.62,19.82c-7.34,4.26-14.34,6.4-21,6.4c-7.66,0-13.84-2.97-18.53-8.91
	c-4.69-5.94-7.04-13.93-7.04-23.95c0-15.04,3.26-33.08,9.77-54.14c6.52-21.05,14.43-40.46,23.74-58.22l27.29-10.1
	c0.86-0.28,1.5-0.43,1.93-0.43c2.07,0,3.77,1.53,5.1,4.57c1.32,3.05,1.98,7.15,1.98,12.3c0,14.61-3.37,28.76-10.1,42.44
	s-17.26,28.29-31.58,43.83c-0.58,7.45-0.86,12.57-0.86,15.36c0,6.23,1.14,11.17,3.44,14.83c2.29,3.65,5.33,5.48,9.13,5.48
	c3.87,0,7.98-1.4,12.35-4.19c4.36-2.79,11.02-8.59,19.98-17.4v12.36L631.29,450.68z M590.15,408.67
	c9.09-10.11,16.47-21.44,22.13-33.99c5.66-12.55,8.49-23.34,8.49-32.38c0-2.65-0.4-4.79-1.18-6.4c-0.79-1.61-1.79-2.42-3.01-2.42
	c-2.65,0-6.5,6.6-11.55,19.79C599.98,366.46,595.02,384.93,590.15,408.67L590.15,408.67z M711.64,450.67
	c-9.1,8.95-17.26,15.56-24.49,19.82c-7.23,4.26-15.21,6.4-23.95,6.4c-9.74,0-17.6-3.11-23.58-9.34c-5.98-6.23-8.97-14.43-8.97-24.6
	c0-15.18,5.27-28.91,15.79-41.19c10.53-12.28,22.2-18.42,35.02-18.42c6.66,0,12,1.72,16.01,5.16s6.02,7.95,6.02,13.54
	c0,14.83-15.75,26.86-47.26,36.1c2.87,13.97,10.35,20.95,22.45,20.95c4.73,0,9.24-1.27,13.54-3.81c4.3-2.54,10.78-8.18,19.45-16.92
	v12.36L711.64,450.67z M655.35,430.8c18.33-5.16,27.5-14.68,27.5-28.58c0-6.88-2.51-10.31-7.52-10.31c-4.73,0-9.24,3.6-13.53,10.8
	C657.5,409.9,655.35,419.27,655.35,430.8L655.35,430.8z M773.52,450.67c-9.02,8.95-16.83,15.56-23.42,19.82
	c-6.59,4.26-12.85,6.4-18.8,6.4c-6.16,0-11.15-2.59-14.98-7.79c-3.83-5.19-5.75-12.01-5.75-20.46c0-7.44,1.83-17.28,5.51-29.5
	l4.56-16.26l-8.25,0.43l3.44-16.86l10.21-0.43l10.08-33.52l28.69-5.89l-11.1,37.36l15.17-0.86l-3.55,16.55l-16.67,1.29l-7.16,24.07
	c-2.49,8.37-3.73,15.02-3.73,19.97c0,3.37,0.84,6.11,2.52,8.23c1.68,2.12,3.85,3.17,6.51,3.17c3.65,0,7.28-1.16,10.86-3.49
	c3.59-2.32,8.86-7.18,15.82-14.55v12.35L773.52,450.67z"/>
<linearGradient id="SVGID_1_" gradientUnits="userSpaceOnUse" x1="1791.365" y1="-901.576" x2="1885.4127" y2="-901.576" gradientTransform="matrix(0.986 0.1668 0.1668 -0.986 -801.2982 -744.9112)">
	<stop  offset="0" style="stop-color:#8BBF45"/>
	<stop  offset="1" style="stop-color:#74B843"/>
</linearGradient>
<path class="st1" d="M814.37,388.43c2.23,2.61,46.1,17.22,61.35,34.97c15.25,17.75,21.91,33.6,19.75,48.83
	c-2.15,15.23-11.47,14.98-15.54,20.53c-4.07,5.55-9.69,12.39-20.49,11.66c-14.14-0.95-28.72-8.01-39.25-32.54
	c-10.53-24.53-9.72-47.57-8.88-60.35c0.84-12.78,3.04-23.1,3.04-23.1H814.37z"/>
<linearGradient id="SVGID_00000093871797818884126980000014774666350064435082_" gradientUnits="userSpaceOnUse" x1="1793.488" y1="-905.3922" x2="1874.6951" y2="-905.3922" gradientTransform="matrix(0.986 0.1668 0.1668 -0.986 -810.2717 -750.5974)">
	<stop  offset="0" style="stop-color:#74B843"/>
	<stop  offset="1" style="stop-color:#4A9634"/>
</linearGradient>
<path style="fill:url(#SVGID_00000093871797818884126980000014774666350064435082_);" d="M811.73,396.64l65.69,97.93l-3.03,3.38"/>
<path class="st3" d="M559.97,532.75l0.62-4.34c17.52-9.34,39.34-12.93,57.11-21.95c5.33,2.4,7.7-1.06,13.38-0.74
	c2.06,1.86-2.59,4.35,2.97,3.97c12.65,1.68,24.97-0.68,37.41-1.74c13.12-1.12,26.15,0.13,39.02-0.63c4.11-0.24,10.44-5.93,15.48-3.1
	c2.28,4.13-7.44,4.49-4.83,9.05c25.76,6.06,90.19,31.68,101.21,3.81c0.15,1.7-1.93,5.06,1.11,4.59
	c21.72-9.72,58.63-30.71,65.13-36.21c7.14-6.04,16.66-5.85,26-8c16.82-3.87,34.77-7.81,49.33-16.29c9,6.25,27.84,9.36,37.91,7.18
	c10.51-2.28,26.82-19.73,35.55-25.9c3.43-2.42,8.45-7.13,12.14-4.46c-2.48,1.7,0.44,6.68-2.6,5.82c-1.59-3.04-4.76,0.47-7.07-0.12
	c-8.79,7.21-17.92,13.96-26.88,20.94c-4.18,2.57,4.03,5.23-0.87,6.07c-23.14,4.6-58.38-6.92-72.97,9.07
	c-23.11,7.91-44.98,9.92-67.76,22.2c-13.09,7.06-29.11,19.9-42.73,26.65c-2.31,1.15-5.69,1.55-8.42,3.23
	c-3.32,2.04-4.14,4.6-6.94,5.2c-6.98,1.5-21.4-2.14-30.48-3.46c-30.28-4.4-62.61-16.75-91.18-18.31
	c-11.3-0.62-24.64,1.17-37.41,1.74c-27.15,1.23-44.13,1.87-65.9,9.19c-8.9,3-22.59,10.93-28.36,6.58L559.97,532.75z"/>
<linearGradient id="SVGID_00000075852440137802309670000007480091992077751225_" gradientUnits="userSpaceOnUse" x1="1242.2794" y1="2729.7854" x2="1400.0468" y2="2729.7854" gradientTransform="matrix(-0.9481 0.318 0.318 0.9481 1318.7749 -2601.4385)">
	<stop  offset="0" style="stop-color:#BFD572"/>
	<stop  offset="1" style="stop-color:#ABCC5A"/>
</linearGradient>
<path style="fill:url(#SVGID_00000075852440137802309670000007480091992077751225_);" d="M979.51,296.04
	c-3.05,4.94-72.6,40.81-93.47,74.47c-20.87,33.67-26.83,60.17-19.26,85.09c7.57,24.91,22.03,23.79,30.28,32.01
	c8.25,8.22,19.43,18.19,37.3,14.17c23.4-5.28,45.94-20.89,57.16-64.65c11.21-43.76,3.86-82.08-0.88-103.24
	C985.89,312.73,979.51,296.04,979.51,296.04L979.51,296.04z"/>
<linearGradient id="SVGID_00000157282302052332165200000015801910802956335003_" gradientUnits="userSpaceOnUse" x1="1245.8695" y1="2721.209" x2="1383.3484" y2="2721.209" gradientTransform="matrix(-0.9481 0.318 0.318 0.9481 1318.7821 -2601.2949)">
	<stop  offset="0" style="stop-color:#ABCC5A"/>
	<stop  offset="1" style="stop-color:#8BBF45"/>
</linearGradient>
<path style="fill:url(#SVGID_00000157282302052332165200000015801910802956335003_);" d="M978.33,303.43l-84.34,180.89l4.95,4.97"/>
</svg>
