<?xml version="1.0" encoding="UTF-8"?>
<svg version="1.1" xmlns="http://www.w3.org/2000/svg" width="600" height="159">
<path d="M0 0 C5.66056916 4.80575025 8.35663988 9.63866566 9.24609375 17.05078125 C9.77044776 25.99657853 6.26632923 34.49623175 0.6171875 41.33984375 C-3.73260132 45.80520667 -7.43700212 47.23402137 -13.6875 47.5 C-17.31100358 47.37076668 -18.62349261 47.26893385 -21.625 45.125 C-24.14632872 41.22840106 -24.16639387 38.65902835 -24 34 C-23.505 33.01 -23.505 33.01 -23 32 C-21.783125 32.268125 -20.56625 32.53625 -19.3125 32.8125 C-15.80619999 33.23375159 -15.25816603 33.17784771 -12.1875 31.0625 C-7.79844519 24.91782327 -6.40477997 19.49977235 -7 12 C-7.53451887 9.59238083 -8.21821074 7.34536777 -9 5 C-15.48023034 3.91263004 -15.48023034 3.91263004 -21.875 4.875 C-28.35351384 11.35351384 -28.99901452 20.77907141 -30.15179443 29.44281006 C-34.7799812 63.7799812 -34.7799812 63.7799812 -47 76 C-45.74509766 76.23783203 -45.74509766 76.23783203 -44.46484375 76.48046875 C-37.84198326 77.80797456 -31.65091267 79.39427471 -25.3125 81.6875 C-16.71532954 84.61552182 -10.007185 85.7250568 -1.625 81.75 C5.07781483 78.2414152 5.07781483 78.2414152 8.93359375 72.1171875 C9.09988281 71.04726562 9.26617187 69.97734375 9.4375 68.875 C11.62653942 58.00277086 18.13095524 47.74156467 27.37109375 41.36328125 C34.22998864 37.43265019 40.10246573 36.31271458 48 37 C52.66585583 38.64169002 55.58918725 40.64199233 58 45 C58.79018883 49.8217645 58.57728362 53.71993633 56.5625 58.1875 C48.48221669 67.05610363 39.00283715 70.84393407 28 75 C28.59882552 76.29597973 29.20913292 77.58665809 29.82421875 78.875 C30.33214966 79.95394531 30.33214966 79.95394531 30.8503418 81.0546875 C32.66288539 84.12165445 34.66220924 84.95284996 38 86 C45.03480283 86.91191889 49.68119202 84.51479803 55.14453125 80.375 C60.28694193 75.7954877 62.140299 71.51331059 64.0078125 64.96875 C65.53773286 60.39103554 68.11795157 56.82425657 71 53 C71.5775 52.13375 72.155 51.2675 72.75 50.375 C79.55589562 43.19099907 89.11544095 36.96671724 99.1875 36.5 C103.75405307 36.6920513 106.54142176 37.89614774 110 41 C110.33 41.99 110.66 42.98 111 44 C112.41152344 43.24203125 112.41152344 43.24203125 113.8515625 42.46875 C115.10904019 41.81185867 116.36687169 41.15564433 117.625 40.5 C118.24246094 40.16613281 118.85992187 39.83226562 119.49609375 39.48828125 C123.51512794 37.41530572 126.48941245 36.61139553 131 37 C129.46287038 42.74089764 127.87645963 48.46145852 126.17578125 54.15625 C125.86962891 55.19910156 125.56347656 56.24195313 125.24804688 57.31640625 C124.62340937 59.44199944 123.98794376 61.56444 123.34179688 63.68359375 C121.33219161 70.61651766 120.57303726 76.7890738 121 84 C124.85198729 84.21385546 124.85198729 84.21385546 128.21875 82.48828125 C129.86131064 80.92166091 131.49136052 79.34188544 133.11328125 77.75390625 C135.16490512 75.79667374 137.04034519 74.1887929 139.29296875 72.52734375 C151.11197406 63.21276898 152.34231468 50.59284587 155.21728516 36.48388672 C156.81405656 29.37661039 159.37590036 22.6526109 162.18994141 15.94824219 C162.96309946 14.08874814 163.67654927 12.20476223 164.38671875 10.3203125 C166.15305087 6.09933545 167.49844839 2.9520271 171.43359375 0.45703125 C174.28649314 -0.66389518 176.99687582 -1.39147221 180 -2 C181.0415625 -2.21914063 182.083125 -2.43828125 183.15625 -2.6640625 C185.76587641 -3.16850059 188.37070167 -3.61348806 191 -4 C196.44872233 2.50331375 196.663664 7.71395978 196 16 C194.02984411 26.34331842 188.43633973 35.66297551 180.1796875 42.25 C169.76367364 50.65092671 168.34577068 62.34685081 166.30273438 75.06835938 C165.93240561 78.65457539 166.16293521 81.50882735 167 85 C172.02283566 86.79560309 175.95568743 87.44603394 181.0625 85.625 C186.51211572 83.00205412 190.95048098 80.35706261 194 75 C195.03484142 71.33300007 195.46661685 67.58841965 195.93505859 63.81469727 C198.26417036 45.05161539 205.39122663 27.19618757 213 10 C213.29044189 9.29456055 213.58088379 8.58912109 213.88012695 7.86230469 C216.08791023 3.17411081 218.88198882 1.62045973 223.50585938 -0.15234375 C224.70952148 -0.57193359 224.70952148 -0.57193359 225.9375 -1 C226.73607422 -1.31066406 227.53464844 -1.62132812 228.35742188 -1.94140625 C236.06813702 -4.79060174 236.06813702 -4.79060174 240 -3 C243.79497588 1.66009196 242.57377422 9.97359194 242.24267578 15.68652344 C240.41163389 33.14221048 229.84128026 48.24105971 218.5 61 C214.07297584 66.31242899 214.4337702 72.29961403 215 79 C215.76305699 81.58197191 216.72531399 83.60996373 218 86 C224.47212572 86.70605008 227.70645519 85.47632735 232.953125 81.66796875 C235.49433661 79.59717227 237.71907485 77.35004409 240 75 C240.66 75 241.32 75 242 75 C242.0825 73.700625 242.165 72.40125 242.25 71.0625 C243.09838672 63.46286683 246.4901603 57.10154784 251 51 C251.40734375 50.43539062 251.8146875 49.87078125 252.234375 49.2890625 C256.81824931 43.39183095 263.50030078 38.3183065 271 37 C276.98623784 36.48632943 281.89717871 36.47662339 287 40 C289.62083595 42.27598911 290.81763938 43.88722808 291.3828125 47.3359375 C291.64110001 53.06992022 290.90877796 56.57690915 287 61 C279.97688581 68.02311419 270.26213017 71.79387802 261 75 C262.70300617 79.21744469 264.03917462 82.3167464 267.8125 85 C272.99198356 86.62493602 276.99048781 86.68350162 281.9375 84.4375 C290.26923335 79.64723363 294.6090374 75.29350843 297.19140625 65.85351562 C297.45824219 64.76748047 297.72507812 63.68144531 298 62.5625 C298.29777344 61.44939453 298.59554688 60.33628906 298.90234375 59.18945312 C299.62724286 56.46523548 300.32540583 53.73702532 301 51 C299.35 51.33 297.7 51.66 296 52 C296.14230808 50.58297487 296.28900746 49.1663904 296.4375 47.75 C296.51871094 46.96109375 296.59992188 46.1721875 296.68359375 45.359375 C296.97634993 43.17635361 297.42064419 41.1226818 298 39 C301.465 38.505 301.465 38.505 305 38 C305.17128418 37.40461426 305.34256836 36.80922852 305.51904297 36.19580078 C306.29764861 33.50353915 307.08619084 30.81428889 307.875 28.125 C308.27912109 26.71927734 308.27912109 26.71927734 308.69140625 25.28515625 C308.95566406 24.38925781 309.21992188 23.49335937 309.4921875 22.5703125 C309.73308105 21.74289551 309.97397461 20.91547852 310.22216797 20.06298828 C311 18 311 18 313 16 C315.46740444 15.37014734 317.87687482 14.83866717 320.375 14.375 C321.04789062 14.2409375 321.72078125 14.106875 322.4140625 13.96875 C325.69811366 13.33521257 328.63976628 13 332 13 C327.96127563 29.8929385 327.96127563 29.8929385 325 37 C328.3 37 331.6 37 335 37 C334.77192509 38.79458945 334.51677697 40.58575449 334.25 42.375 C334.11078125 43.37273438 333.9715625 44.37046875 333.828125 45.3984375 C333 48 333 48 331.421875 49.3515625 C327.88718294 50.29794779 324.65521405 50.12184047 321 50 C320.73445313 51.0621875 320.46890625 52.124375 320.1953125 53.21875 C319.48697917 56.05208333 318.77864583 58.88541667 318.0703125 61.71875 C317.895 62.42362549 317.7196875 63.12850098 317.5390625 63.85473633 C317.17614105 65.29902564 316.80620813 66.74156917 316.4296875 68.18237305 C315.28508563 72.59982088 314.64112718 76.42437156 315 81 C315.66 81.99 316.32 82.98 317 84 C320.821339 84.6079403 322.65967042 84.18752854 326.0625 82.3125 C329.04556122 80.05787506 329.04556122 80.05787506 331.625 77.375 C333.78237042 75.21762958 335.29328547 74.24486027 338 73 C338.77992491 77.83553443 339.06345809 80.50980394 336.16015625 84.578125 C329.23489854 91.71124984 320.10063691 99.97079084 309.6875 100.3125 C304.98234292 100.21336379 302.4946573 99.33580924 299 96 C297.08439952 92.76679072 295.48750605 89.44890784 294 86 C293.39414062 86.51949219 292.78828125 87.03898437 292.1640625 87.57421875 C281.72790113 96.26031614 272.69267217 100.98891521 259 100 C252.8016326 98.92389455 249.43083486 95.8598274 245.4453125 91.1328125 C243.89247791 88.84133227 242.93279347 86.59914297 242 84 C241.46632813 84.50789063 240.93265625 85.01578125 240.3828125 85.5390625 C231.69917435 93.56166246 222.45339835 100.59640566 210.171875 100.24609375 C205.29062305 99.69300225 202.58916496 97.58916496 199.1875 94.1875 C196.91122561 90.87064303 196.50659541 88.90568719 196 85 C195.09378906 85.74765625 194.18757813 86.4953125 193.25390625 87.265625 C176.61760326 100.80121402 176.61760326 100.80121402 165 100 C164.01 100 163.02 100 162 100 C159.525 115.345 159.525 115.345 157 131 C152.372102 132.32225657 148.24988125 133.38765913 143.5625 134.125 C142.51191406 134.29257813 141.46132812 134.46015625 140.37890625 134.6328125 C139.59386719 134.75398437 138.80882812 134.87515625 138 135 C137.86322313 129.24153115 138.33194115 123.92514468 139.3125 118.2578125 C139.58598914 116.59766476 139.85942499 114.93750823 140.1328125 113.27734375 C140.56501927 110.70125418 140.99989214 108.1256362 141.43652344 105.55029297 C143.69255751 92.35629108 143.69255751 92.35629108 144 79 C139.57846237 82.84760142 135.1990972 86.7302959 130.875 90.6875 C120.86464993 99.71372963 120.86464993 99.71372963 113.625 100.25 C109.65108216 99.9759367 108.00244491 99.58543867 105 97 C102.72517772 92.6940864 101.72742618 88.77541814 101 84 C100.38253906 84.73605469 99.76507813 85.47210938 99.12890625 86.23046875 C88.15432762 98.87545509 88.15432762 98.87545509 79.6484375 100.4296875 C74.33165802 100.73197931 71.07031464 99.59702224 67 96 C64.30830054 92.48583682 62.58334619 89.1042 61 85 C60.39414063 85.59167969 59.78828125 86.18335937 59.1640625 86.79296875 C49.65502272 95.76072473 41.16461887 100.4331158 28.0390625 100.2734375 C20.93878398 99.63459496 16.63703604 96.17319491 12.12890625 90.87890625 C10.77201519 88.62055124 10.38643464 86.58955625 10 84 C9.18917969 84.66386719 8.37835938 85.32773438 7.54296875 86.01171875 C-3.64494813 94.99909608 -14.21493085 101.14547164 -29 100 C-36.30961157 98.68716261 -43.11179358 95.88326525 -49.8737793 92.89404297 C-52.39208843 91.820731 -54.42708062 90.96221387 -57.19140625 91.14453125 C-59.37448575 92.17713257 -61.11295928 93.4300788 -63 94.9375 C-68.05242145 98.95378034 -71.36041212 100.6035989 -78 100 C-80.12648959 98.42974495 -80.8922002 97.51860447 -81.43359375 94.9140625 C-81.44010192 91.10027349 -81.32101121 88.60189602 -79.5 85.1875 C-73.87848407 80.26867356 -68.36765744 78.52626125 -61 78 C-58.61110582 72.19839985 -56.80908158 66.92244376 -56.32421875 60.6328125 C-56.22141602 59.4247998 -56.11861328 58.21678711 -56.01269531 56.97216797 C-55.90538086 55.70260254 -55.79806641 54.43303711 -55.6875 53.125 C-53.90210034 34.39221577 -50.34070799 18.15549419 -36.10546875 4.71875 C-25.35566416 -4.05660069 -12.38043056 -7.18668896 0 0 Z M185 5 C180.08313604 10.2519756 178.3715461 17.48100269 176.625 24.25 C176.35300781 25.2296875 176.08101563 26.209375 175.80078125 27.21875 C174.1041397 33.09343166 174.1041397 33.09343166 175 39 C182.34620172 31.45328161 189.15733907 22.91661406 189.125 11.9375 C189.12757813 11.05964844 189.13015625 10.18179687 189.1328125 9.27734375 C189.14833424 6.96801734 189.14833424 6.96801734 188 5 C187.01 5 186.02 5 185 5 Z M232 6 C226.18982821 16.13689546 223.05879548 26.79069101 220 38 C219.78537109 38.74185547 219.57074219 39.48371094 219.34960938 40.24804688 C218.33337896 43.92211068 217.87610459 46.3638678 219 50 C229.84809104 37.2048157 235.69668609 22.69466302 235 6 C234.01 6 233.02 6 232 6 Z M34.5 45.5 C30.4651103 49.5348897 27.15349244 55.44511512 26.90234375 61.26171875 C26.91394531 62.06222656 26.92554687 62.86273438 26.9375 63.6875 C26.94652344 64.49574219 26.95554687 65.30398437 26.96484375 66.13671875 C26.97644531 66.75160156 26.98804687 67.36648437 27 68 C33.30384954 65.86310185 37.95840019 64.02719971 41.8125 58.3125 C43.29155014 54.18672857 43.66956833 50.34784631 43 46 C42.34 45.34 41.68 44.68 41 44 C37.08574929 43.65700283 37.08574929 43.65700283 34.5 45.5 Z M90 50 C85.24986464 58.03204706 80.73295214 66.65770105 80.6875 76.1875 C80.67074219 77.00605469 80.65398437 77.82460937 80.63671875 78.66796875 C81.08463767 81.54331922 82.00756144 82.90393579 84 85 C87.05611442 85.69457146 88.94815436 85.56382717 91.734375 84.0703125 C99.88519613 77.97522944 103.46504917 67.44288512 105.59765625 57.83984375 C106.20474514 53.55485714 105.95503873 50.22945722 105 46 C98.70826114 41.80550743 94.48079649 44.54883993 90 50 Z M267.5 45.5 C263.06850138 49.93149862 260.19097088 55.81391836 259.90234375 62.140625 C259.91394531 62.83671875 259.92554688 63.5328125 259.9375 64.25 C259.958125 65.4875 259.97875 66.725 260 68 C266.70075886 65.78809902 271.00683847 63.92533647 275 58 C276.23887548 55.52224905 276.16741669 53.76346293 276.1875 51 C276.20167969 50.113125 276.21585937 49.22625 276.23046875 48.3125 C276.22713126 45.80480016 276.22713126 45.80480016 274 44 C270.08574929 43.65700283 270.08574929 43.65700283 267.5 45.5 Z M217 50 C218 52 218 52 218 52 Z " fill="#909090" transform="translate(81,20)"/>
<path d="M0 0 C11.94708322 35.56248439 17.67432627 74.63079537 2 110 C1.67 110.66 1.34 111.32 1 112 C11.50792913 112.96642268 17.82904041 111.7435028 26 105 C28.60709607 102.71495697 31.16650837 100.39027485 33.703125 98.02734375 C36.65532901 95.42157184 39.42432105 93.63885285 43 92 C43.66 92.33 44.32 92.66 45 93 C45 94.65 45 96.3 45 98 C43.78957031 98.05220703 43.78957031 98.05220703 42.5546875 98.10546875 C37.5176342 99.37303491 34.17524181 102.15125194 30.125 105.3125 C29.34125 105.89451172 28.5575 106.47652344 27.75 107.07617188 C27.01007813 107.64529297 26.27015625 108.21441406 25.5078125 108.80078125 C24.49678467 109.57675659 24.49678467 109.57675659 23.46533203 110.3684082 C21.55454451 112.13049629 21.55454451 112.13049629 22 116 C18.77151785 116.89898792 15.97695581 117.00027627 12.671875 116.74609375 C3.42173752 115.83382723 3.42173752 115.83382723 -4.9296875 119.01171875 C-7.15829124 121.59720901 -7.15829124 121.59720901 -9.109375 124.390625 C-14.58151037 131.9430763 -24.58826771 135.95736268 -33.5703125 137.41796875 C-41.02159845 137.85009662 -46.8436987 134.83073195 -52.8984375 130.70703125 C-57.74829009 129.0753894 -63.60310858 132.97595023 -68 135 C-70.12057057 136.17132868 -72.12325312 137.41480085 -74.1328125 138.765625 C-76.07885934 140.05213295 -78.06823455 141.15004485 -80.125 142.25 C-84.22712704 144.48558826 -88.10007518 146.99825134 -92 149.5625 C-97.16182284 152.94871125 -102.28047007 155.67341155 -108 158 C-108.33 158.33 -108.66 158.66 -109 159 C-129.23077628 161.24430165 -150.43246097 154.04966808 -169.94946289 149.32397461 C-199.71794195 142.16436536 -237.75997644 144.54947521 -266.3684082 155.75073242 C-273.98446835 158.67248076 -273.98446835 158.67248076 -278 157 C-278.33 156.34 -278.66 155.68 -279 155 C-278 152 -278 152 -275.32421875 150.640625 C-274.12410156 150.18171875 -272.92398437 149.7228125 -271.6875 149.25 C-271.03394531 148.99903564 -270.38039063 148.74807129 -269.70703125 148.48950195 C-267.47730268 147.64273352 -265.24000049 146.81919754 -263 146 C-261.73470459 145.53376221 -261.73470459 145.53376221 -260.44384766 145.05810547 C-257.79995569 144.08954131 -255.151372 143.13538329 -252.5 142.1875 C-251.66428467 141.88553711 -250.82856934 141.58357422 -249.9675293 141.27246094 C-243.30028542 138.93401484 -237.10112646 137.82680179 -230 138 C-230 138.66 -230 139.32 -230 140 C-228.84371094 139.93941406 -227.68742187 139.87882813 -226.49609375 139.81640625 C-224.8099262 139.731168 -223.12372494 139.64659522 -221.4375 139.5625 C-220.52742188 139.51665771 -219.61734375 139.47081543 -218.6796875 139.42358398 C-212.74728717 139.13878578 -206.81617765 138.93022495 -200.87890625 138.78125 C-199.47924661 138.74411341 -198.0795884 138.70692261 -196.67993164 138.66967773 C-194.59687755 138.61457401 -192.51400553 138.56277904 -190.43063354 138.52127075 C-188.46399214 138.48198817 -186.49760302 138.43064912 -184.53125 138.37890625 C-183.39236328 138.3538501 -182.25347656 138.32879395 -181.08007812 138.30297852 C-178.00398005 138.00039151 -175.81417701 137.22135525 -173 136 C-170.1875 135.875 -170.1875 135.875 -168 136 C-168.33 137.65 -168.66 139.3 -169 141 C-169.66 141 -170.32 141 -171 141 C-171 141.66 -171 142.32 -171 143 C-170.41444336 143.10884521 -169.82888672 143.21769043 -169.22558594 143.32983398 C-162.48350546 144.62552389 -155.87858441 146.28188027 -149.25 148.0625 C-140.37006479 150.44533976 -132.2117702 152.18919624 -123 152.25 C-122.21882812 152.270625 -121.43765625 152.29125 -120.6328125 152.3125 C-115.67428632 152.34589075 -112.29239525 151.75749849 -108 149 C-106.59533047 146.94906855 -106.59533047 146.94906855 -106 145 C-105.34 145 -104.68 145 -104 145 C-103.67 145.66 -103.34 146.32 -103 147 C-98.71 144.69 -94.42 142.38 -90 140 C-91.340625 139.34 -92.68125 138.68 -94.0625 138 C-104.56616791 132.03312762 -109.34411251 122.15207669 -113 111 C-117.39579124 95.00710898 -116.20078688 79.23080323 -114 63 C-109.22168174 64.06769767 -104.94796689 66.12078588 -100.5 68.125 C-99.60958008 68.52517334 -98.71916016 68.92534668 -97.80175781 69.33764648 C-90.91996353 72.47838557 -84.39985939 75.95456043 -78 80 C-77.6596875 79.01902344 -77.319375 78.03804688 -76.96875 77.02734375 C-64.21553218 41.14350944 -38.58127221 23.16811479 -7.39746094 3.52124023 C-1.84801797 -0 -1.84801797 -0 0 0 Z " fill="#B4DF62" transform="translate(555,0)"/>
<path d="M0 0 C4.77831826 1.06769767 9.05203311 3.12078588 13.5 5.125 C14.39041992 5.52517334 15.28083984 5.92534668 16.19824219 6.33764648 C23.08003647 9.47838557 29.60014061 12.95456043 36 17 C36.66 16.34 37.32 15.68 38 15 C37.97905273 15.56807373 37.95810547 16.13614746 37.93652344 16.72143555 C37.07138243 36.18464846 37.07138243 36.18464846 45.125 53.4375 C48.61629589 57.03528422 52.6566013 59.42483348 57.05859375 61.7734375 C57.69925781 62.17820313 58.33992187 62.58296875 59 63 C59 63.66 59 64.32 59 65 C59.66 65.33 60.32 65.66 61 66 C60.01 66.37511719 59.02 66.75023437 58 67.13671875 C48.55299948 70.77139133 48.55299948 70.77139133 39.796875 75.80078125 C37.87757854 77.08170302 35.90958022 78.16216787 33.875 79.25 C29.77287296 81.48558826 25.89992482 83.99825134 22 86.5625 C16.83817716 89.94871125 11.71952993 92.67341155 6 95 C5.67 95.33 5.34 95.66 5 96 C-15.23077628 98.24430165 -36.43246097 91.04966808 -55.94946289 86.32397461 C-85.71794195 79.16436536 -123.75997644 81.54947521 -152.3684082 92.75073242 C-159.98446835 95.67248076 -159.98446835 95.67248076 -164 94 C-164.33 93.34 -164.66 92.68 -165 92 C-164 89 -164 89 -161.32421875 87.640625 C-159.52404297 86.95226562 -159.52404297 86.95226562 -157.6875 86.25 C-157.03394531 85.99903564 -156.38039063 85.74807129 -155.70703125 85.48950195 C-153.47730268 84.64273352 -151.24000049 83.81919754 -149 83 C-147.73470459 82.53376221 -147.73470459 82.53376221 -146.44384766 82.05810547 C-143.79995569 81.08954131 -141.151372 80.13538329 -138.5 79.1875 C-137.66428467 78.88553711 -136.82856934 78.58357422 -135.9675293 78.27246094 C-129.30028542 75.93401484 -123.10112646 74.82680179 -116 75 C-116 75.66 -116 76.32 -116 77 C-114.84371094 76.93941406 -113.68742187 76.87882812 -112.49609375 76.81640625 C-110.8099262 76.731168 -109.12372494 76.64659522 -107.4375 76.5625 C-106.52742188 76.51665771 -105.61734375 76.47081543 -104.6796875 76.42358398 C-98.74728717 76.13878578 -92.81617765 75.93022495 -86.87890625 75.78125 C-85.47924661 75.74411341 -84.0795884 75.70692261 -82.67993164 75.66967773 C-80.59687755 75.61457401 -78.51400553 75.56277904 -76.43063354 75.52127075 C-74.46399214 75.48198817 -72.49760302 75.43064912 -70.53125 75.37890625 C-69.39236328 75.3538501 -68.25347656 75.32879395 -67.08007812 75.30297852 C-64.00398005 75.00039151 -61.81417701 74.22135525 -59 73 C-56.1875 72.875 -56.1875 72.875 -54 73 C-54.33 74.65 -54.66 76.3 -55 78 C-55.66 78 -56.32 78 -57 78 C-57 78.66 -57 79.32 -57 80 C-56.41444336 80.10884521 -55.82888672 80.21769043 -55.22558594 80.32983398 C-48.48350546 81.62552389 -41.87858441 83.28188027 -35.25 85.0625 C-26.37006479 87.44533976 -18.2117702 89.18919624 -9 89.25 C-8.21882812 89.270625 -7.43765625 89.29125 -6.6328125 89.3125 C-1.67428632 89.34589075 1.70760475 88.75749849 6 86 C7.40466953 83.94906855 7.40466953 83.94906855 8 82 C8.66 82 9.32 82 10 82 C10.33 82.66 10.66 83.32 11 84 C15.29 81.69 19.58 79.38 24 77 C22.659375 76.34 21.31875 75.68 19.9375 75 C9.43383209 69.03312762 4.65588749 59.15207669 1 48 C-3.39579124 32.00710898 -2.20078688 16.23080323 0 0 Z " fill="#7DBA41" transform="translate(441,63)"/>
<path d="M0 0 C1.92260742 0.69628906 1.92260742 0.69628906 3.92260742 1.69628906 C3.92260742 2.35628906 3.92260742 3.01628906 3.92260742 3.69628906 C4.91260742 4.19128906 4.91260742 4.19128906 5.92260742 4.69628906 C4.93260742 5.07140625 3.94260742 5.44652344 2.92260742 5.83300781 C-6.5243931 9.46768039 -6.5243931 9.46768039 -15.28051758 14.49707031 C-17.19981404 15.77799208 -19.16781235 16.85845694 -21.20239258 17.94628906 C-25.30451962 20.18187733 -29.17746776 22.6945404 -33.07739258 25.25878906 C-38.23921542 28.64500031 -43.35786265 31.36970062 -49.07739258 33.69628906 C-49.40739258 34.02628906 -49.73739258 34.35628906 -50.07739258 34.69628906 C-70.30816886 36.94059071 -91.50985355 29.74595715 -111.02685547 25.02026367 C-140.79533453 17.86065442 -178.83736902 20.24576427 -207.44580078 31.44702148 C-215.06186093 34.36876983 -215.06186093 34.36876983 -219.07739258 32.69628906 C-219.40739258 32.03628906 -219.73739258 31.37628906 -220.07739258 30.69628906 C-219.07739258 27.69628906 -219.07739258 27.69628906 -216.40161133 26.33691406 C-215.20149414 25.87800781 -214.00137695 25.41910156 -212.76489258 24.94628906 C-211.78456055 24.56984253 -211.78456055 24.56984253 -210.78442383 24.18579102 C-208.55469526 23.33902258 -206.31739306 22.51548661 -204.07739258 21.69628906 C-203.2338623 21.38546387 -202.39033203 21.07463867 -201.52124023 20.75439453 C-198.87734826 19.78583037 -196.22876458 18.83167236 -193.57739258 17.88378906 C-192.32381958 17.43084473 -192.32381958 17.43084473 -191.04492188 16.96875 C-184.377678 14.63030391 -178.17851904 13.52309086 -171.07739258 13.69628906 C-171.07739258 14.35628906 -171.07739258 15.01628906 -171.07739258 15.69628906 C-169.92110352 15.63570312 -168.76481445 15.57511719 -167.57348633 15.51269531 C-165.88731878 15.42745706 -164.20111752 15.34288429 -162.51489258 15.25878906 C-161.14977539 15.19002563 -161.14977539 15.19002563 -159.75708008 15.11987305 C-153.82467975 14.83507484 -147.89357023 14.62651401 -141.95629883 14.47753906 C-140.55663919 14.44040247 -139.15698098 14.40321167 -137.75732422 14.3659668 C-135.67427012 14.31086308 -133.59139811 14.2590681 -131.50802612 14.21755981 C-129.54138472 14.17827723 -127.5749956 14.12693818 -125.60864258 14.07519531 C-124.46975586 14.05013916 -123.33086914 14.02508301 -122.1574707 13.99926758 C-119.08137263 13.69668057 -116.89156959 12.91764431 -114.07739258 11.69628906 C-111.26489258 11.57128906 -111.26489258 11.57128906 -109.07739258 11.69628906 C-109.40739258 13.34628906 -109.73739258 14.99628906 -110.07739258 16.69628906 C-110.73739258 16.69628906 -111.39739258 16.69628906 -112.07739258 16.69628906 C-112.07739258 17.35628906 -112.07739258 18.01628906 -112.07739258 18.69628906 C-111.19905762 18.85955688 -111.19905762 18.85955688 -110.30297852 19.02612305 C-103.56089804 20.32181295 -96.95597699 21.97816933 -90.32739258 23.75878906 C-81.44745737 26.14162882 -73.28916278 27.8854853 -64.07739258 27.94628906 C-63.2962207 27.96691406 -62.51504883 27.98753906 -61.71020508 28.00878906 C-56.7516789 28.04217981 -53.36978782 27.45378756 -49.07739258 24.69628906 C-47.67272305 22.64535761 -47.67272305 22.64535761 -47.07739258 20.69628906 C-46.41739258 20.69628906 -45.75739258 20.69628906 -45.07739258 20.69628906 C-44.74739258 21.35628906 -44.41739258 22.01628906 -44.07739258 22.69628906 C-43.1621582 22.20257813 -42.24692383 21.70886719 -41.30395508 21.20019531 C-40.10344274 20.55304413 -38.90292144 19.90590958 -37.70239258 19.25878906 C-37.09911133 18.93330078 -36.49583008 18.6078125 -35.87426758 18.27246094 C-29.36158313 14.76284765 -29.36158313 14.76284765 -27.18017578 14.25195312 C-25.02049691 13.68125428 -23.37578452 12.8978628 -21.43286133 11.80566406 C-20.41675781 11.23525391 -20.41675781 11.23525391 -19.38012695 10.65332031 C-18.33308594 10.05583984 -18.33308594 10.05583984 -17.26489258 9.44628906 C-16.5784668 9.0634375 -15.89204102 8.68058594 -15.18481445 8.28613281 C-11.70819927 6.31923037 -8.48016779 4.27802277 -5.31567383 1.83691406 C-2.07739258 -0.30371094 -2.07739258 -0.30371094 0 0 Z " fill="#343433" transform="translate(496.077392578125,124.3037109375)"/>
<path d="M0 0 C4.29305646 4.77006274 4.33051194 9.48354219 4.29296875 15.640625 C3.82247264 21.03564707 2.28277933 26.09285756 0 31 C-0.99 31.495 -0.99 31.495 -2 32 C-1.7834375 31.41734375 -1.566875 30.8346875 -1.34375 30.234375 C1.32897228 22.36469272 2.38176152 14.10567228 0 6 C-5.66522697 3.79276871 -12.7410964 6.30308953 -18.27490234 8.20898438 C-21.68373509 9.77204949 -22.86400943 12.15446405 -24.19921875 15.51171875 C-24.59560547 16.74341797 -24.59560547 16.74341797 -25 18 C-25.68360255 19.64745597 -26.37115075 21.29327987 -27.0625 22.9375 C-27.38089844 23.77152344 -27.69929687 24.60554688 -28.02734375 25.46484375 C-28.67641435 27.15659803 -29.35639499 28.83681021 -30.06640625 30.50390625 C-32.50600329 36.25631402 -34.00285451 41.83344236 -35 48 C-35.66 48 -36.32 48 -37 48 C-37.12117188 48.78503906 -37.24234375 49.57007813 -37.3671875 50.37890625 C-39.86594934 66.04422089 -45.41693348 72.61189735 -56.46801758 83.43212891 C-58.74106368 85.66832212 -60.83345609 87.76981116 -62.70703125 90.359375 C-64 92 -64 92 -66.9375 92.5 C-70.7235073 91.88187636 -71.67016838 91.00256432 -74 88 C-75.64733812 78.70949751 -73.42769719 69.6311893 -70 61 C-69.67 60.67 -69.34 60.34 -69 60 C-68.65239293 58.61249279 -68.34663367 57.21438266 -68.0625 55.8125 C-67.27502633 52.10604499 -66.28216023 48.57173208 -65 45 C-65.65226562 45.433125 -66.30453125 45.86625 -66.9765625 46.3125 C-74.0019992 50.78888445 -74.0019992 50.78888445 -78.25 51.6875 C-82.02933581 50.74266605 -84.09284958 48.53602483 -87 46 C-92.28727162 43.9129191 -97.33047136 45.99510379 -102.38671875 47.8984375 C-113.79457696 52.94869812 -120.81327482 61.90968519 -126 73 C-126.66 73 -127.32 73 -128 73 C-128 73.99 -128 74.98 -128 76 C-128.67280895 80.65280557 -131.38480534 83.21147262 -134.72265625 86.33203125 C-138.08833969 88.79712015 -140.89848165 89.41406881 -145 90 C-145 90.66 -145 91.32 -145 92 C-151.31013208 92.74306228 -155.9105892 92.69823952 -161.1875 88.875 C-164.16363748 86.27485142 -164.90837488 85.55993129 -165.5625 81.5625 C-165.376875 80.716875 -165.19125 79.87125 -165 79 C-164.608125 79.556875 -164.21625 80.11375 -163.8125 80.6875 C-159.71008736 85.9257184 -159.71008736 85.9257184 -154 89 C-146.85552118 89.7004391 -142.4139987 87.58692798 -136.85546875 83.375 C-131.71305807 78.7954877 -129.859701 74.51331059 -127.9921875 67.96875 C-126.46226714 63.39103554 -123.88204843 59.82425657 -121 56 C-120.4225 55.13375 -119.845 54.2675 -119.25 53.375 C-112.44410438 46.19099907 -102.88455905 39.96671724 -92.8125 39.5 C-88.24594693 39.6920513 -85.45857824 40.89614774 -82 44 C-81.67 44.99 -81.34 45.98 -81 47 C-79.58847656 46.24203125 -79.58847656 46.24203125 -78.1484375 45.46875 C-76.89095981 44.81185867 -75.63312831 44.15564433 -74.375 43.5 C-73.75753906 43.16613281 -73.14007813 42.83226562 -72.50390625 42.48828125 C-68.48487206 40.41530572 -65.51058755 39.61139553 -61 40 C-62.53712962 45.74089764 -64.12354037 51.46145852 -65.82421875 57.15625 C-66.13037109 58.19910156 -66.43652344 59.24195313 -66.75195312 60.31640625 C-67.37659063 62.44199944 -68.01205624 64.56444 -68.65820312 66.68359375 C-70.66780839 73.61651766 -71.42696274 79.7890738 -71 87 C-67.14801271 87.21385546 -67.14801271 87.21385546 -63.78125 85.48828125 C-62.13868936 83.92166091 -60.50863948 82.34188544 -58.88671875 80.75390625 C-56.83509488 78.79667374 -54.95965481 77.1887929 -52.70703125 75.52734375 C-40.88802594 66.21276898 -39.65768532 53.59284587 -36.78271484 39.48388672 C-35.18594344 32.37661039 -32.62409964 25.6526109 -29.81005859 18.94824219 C-29.03690054 17.08874814 -28.32345073 15.20476223 -27.61328125 13.3203125 C-25.81953052 9.03381363 -24.50930369 5.91719224 -20.4609375 3.45703125 C-17.65296096 2.3856683 -14.93289678 1.64482128 -12 1 C-10.83791016 0.65388672 -10.83791016 0.65388672 -9.65234375 0.30078125 C-6.06647346 -0.75152087 -3.53412029 -1.23914176 0 0 Z " fill="#7C7C7C" transform="translate(273,17)"/>
<path d="M0 0 C2.99406717 3.47813791 2.21835008 8.41999226 2.125 12.75 C2.11597656 13.54277344 2.10695313 14.33554687 2.09765625 15.15234375 C2.07417012 17.10169281 2.03830137 19.05088575 2 21 C1.67 21 1.34 21 1 21 C0.505 13.575 0.505 13.575 0 6 C-5.21865916 4.95626817 -7.8582095 5.62469411 -12.625 7.375 C-13.29273438 7.60960937 -13.96046875 7.84421875 -14.6484375 8.0859375 C-16.43547885 8.71497605 -18.21799274 9.35683876 -20 10 C-20.99 10.33 -21.98 10.66 -23 11 C-23.0825 12.03125 -23.165 13.0625 -23.25 14.125 C-24.06463946 18.33397057 -25.32915914 20.68168257 -28 24 C-28.66 24 -29.32 24 -30 24 C-30.17015625 25.134375 -30.3403125 26.26875 -30.515625 27.4375 C-30.75972715 28.95844416 -31.00455796 30.47927149 -31.25 32 C-31.35957031 32.74378906 -31.46914063 33.48757812 -31.58203125 34.25390625 C-32.23095069 38.18157657 -33.0799448 41.43241885 -34.97265625 44.94921875 C-37.36624105 49.40673295 -38.28610679 53.86452722 -39.1875 58.8125 C-39.35983154 59.69325195 -39.53216309 60.57400391 -39.7097168 61.48144531 C-40.58372876 66.09799948 -41.16731385 70.54464896 -41.3125 75.25 C-41.65800096 80.15611368 -43.45546594 82.76158357 -46.890625 86.2109375 C-53.13805402 91.50968286 -58.55761705 95.31993413 -66.9921875 95.2265625 C-69.89200576 94.89934565 -71.75826249 93.82141172 -74 92 C-74 91.34 -74 90.68 -74 90 C-74.66 90 -75.32 90 -76 90 C-78.5296942 82.41091741 -76.34951608 74.63919797 -74.6875 67.0625 C-74.47416016 66.00998047 -74.26082031 64.95746094 -74.04101562 63.87304688 C-73.82509766 62.87466797 -73.60917969 61.87628906 -73.38671875 60.84765625 C-73.19295654 59.94023682 -72.99919434 59.03281738 -72.79956055 58.09790039 C-72.53570557 57.40559326 -72.27185059 56.71328613 -72 56 C-70.515 55.505 -70.515 55.505 -69 55 C-69.15670166 55.75095947 -69.31340332 56.50191895 -69.47485352 57.27563477 C-70.18279191 60.70222572 -70.87278051 64.13219749 -71.5625 67.5625 C-71.80935547 68.74392578 -72.05621094 69.92535156 -72.31054688 71.14257812 C-73.49226363 77.08444967 -74.4546917 82.06799374 -73 88 C-67.97716434 89.79560309 -64.04431257 90.44603394 -58.9375 88.625 C-53.48788428 86.00205412 -49.04951902 83.35706261 -46 78 C-44.96515858 74.33300007 -44.53338315 70.58841965 -44.06494141 66.81469727 C-41.73582964 48.05161539 -34.60877337 30.19618757 -27 13 C-26.70955811 12.29456055 -26.41911621 11.58912109 -26.11987305 10.86230469 C-23.91208977 6.17411081 -21.11801118 4.62045973 -16.49414062 2.84765625 C-15.69169922 2.56792969 -14.88925781 2.28820312 -14.0625 2 C-13.26392578 1.68933594 -12.46535156 1.37867188 -11.64257812 1.05859375 C-3.93186298 -1.79060174 -3.93186298 -1.79060174 0 0 Z " fill="#737373" transform="translate(321,17)"/>
<path d="M0 0 C4.94153954 4.19530337 7.97434518 8.50418611 9 15 C9.37789366 19.93781048 9.49726806 23.6099613 7 28 C6.97421875 27.07058594 6.9484375 26.14117187 6.921875 25.18359375 C6.55697253 15.36611974 6.55697253 15.36611974 2 7 C-3.89115849 2.85436995 -12.19817093 0.39296164 -19.41015625 1.3046875 C-21.43877971 2.02257016 -23.15340527 2.89852244 -25 4 C-25.6290625 4.309375 -26.258125 4.61875 -26.90625 4.9375 C-36.8113949 10.28313376 -43.78346972 19.76936601 -48 30 C-48.66 30 -49.32 30 -50 30 C-51.61117921 38.36193537 -52.353169 46.49401352 -52.5625 55 C-52.62248692 57.18760795 -52.686132 59.37511946 -52.75390625 61.5625 C-52.77783447 62.51253906 -52.8017627 63.46257812 -52.82641602 64.44140625 C-52.983674 66.75935797 -53.35082 68.77610882 -54 71 C-54.66 71 -55.32 71 -56 71 C-56.12375 71.5775 -56.2475 72.155 -56.375 72.75 C-57.53941909 76.94190871 -57.53941909 76.94190871 -59 79 C-62.50990464 80.78686054 -65.04124604 82 -69 82 C-69 82.66 -69 83.32 -69 84 C-70.051875 84.433125 -71.10375 84.86625 -72.1875 85.3125 C-75.29460982 86.63870541 -78.14518195 88.1832976 -81 90 C-79.82638517 85.43594232 -77.64615056 83.5634873 -73.8671875 81.0703125 C-69.63796735 78.64603149 -65.8483148 77.71480501 -61 78 C-58.61110582 72.19839985 -56.80908158 66.92244376 -56.32421875 60.6328125 C-56.22141602 59.4247998 -56.11861328 58.21678711 -56.01269531 56.97216797 C-55.90538086 55.70260254 -55.79806641 54.43303711 -55.6875 53.125 C-53.90210034 34.39221577 -50.34070799 18.15549419 -36.10546875 4.71875 C-25.35566416 -4.05660069 -12.38043056 -7.18668896 0 0 Z " fill="#707070" transform="translate(81,20)"/>
<path d="M0 0 C-4.03872437 16.8929385 -4.03872437 16.8929385 -7 24 C-3.7 24 -0.4 24 3 24 C2.34 27.63 1.68 31.26 1 35 C-0.98 35.495 -0.98 35.495 -3 36 C-2.34 33.36 -1.68 30.72 -1 28 C-3.31 28 -5.62 28 -8 28 C-9.34298925 22.64493594 -8.50639282 18.79310827 -7.0625 13.625 C-6.76956055 12.52091797 -6.76956055 12.52091797 -6.47070312 11.39453125 C-5.99119804 9.59346339 -5.49707535 7.79629804 -5 6 C-6.95979427 6.28168297 -8.91782378 6.57566717 -10.875 6.875 C-12.51082031 7.11863281 -12.51082031 7.11863281 -14.1796875 7.3671875 C-17.11932714 7.76256513 -17.11932714 7.76256513 -19 10 C-19.57387768 12.42273482 -19.57387768 12.42273482 -19.9375 15.1875 C-21.84513524 26.38385143 -21.84513524 26.38385143 -26.5 29.875 C-29 31 -29 31 -32 32 C-32.33 34.31 -32.66 36.62 -33 39 C-33.99 39 -34.98 39 -36 39 C-35.85769192 37.58297487 -35.71099254 36.1663904 -35.5625 34.75 C-35.48128906 33.96109375 -35.40007812 33.1721875 -35.31640625 32.359375 C-35.02365007 30.17635361 -34.57935581 28.1226818 -34 26 C-30.535 25.505 -30.535 25.505 -27 25 C-26.74307373 24.10692139 -26.74307373 24.10692139 -26.48095703 23.19580078 C-25.70235139 20.50353915 -24.91380916 17.81428889 -24.125 15.125 C-23.85558594 14.18785156 -23.58617187 13.25070313 -23.30859375 12.28515625 C-22.91220703 10.94130859 -22.91220703 10.94130859 -22.5078125 9.5703125 C-22.26691895 8.74289551 -22.02602539 7.91547852 -21.77783203 7.06298828 C-21 5 -21 5 -19 3 C-16.53259556 2.37014734 -14.12312518 1.83866717 -11.625 1.375 C-10.61566406 1.17390625 -10.61566406 1.17390625 -9.5859375 0.96875 C-6.30188634 0.33521257 -3.36023372 0 0 0 Z " fill="#787878" transform="translate(413,33)"/>
<path d="M0 0 C2.4375 2.1875 2.4375 2.1875 3.4375 5.1875 C4.37851563 4.6821875 5.31953125 4.176875 6.2890625 3.65625 C7.54654019 2.99935867 8.80437169 2.34314433 10.0625 1.6875 C10.67996094 1.35363281 11.29742187 1.01976562 11.93359375 0.67578125 C15.95262794 -1.39719428 18.92691245 -2.20110447 23.4375 -1.8125 C23.1075 -0.1625 22.7775 1.4875 22.4375 3.1875 C21.2 2.7853125 21.2 2.7853125 19.9375 2.375 C16.08482747 2.16860683 15.47380373 2.54629975 12.4375 4.625 C9.77611678 6.43819429 8.42876543 7.18917973 5.1875 7.8125 C1.49062593 6.97230135 0.52990049 5.25137215 -1.5625 2.1875 C-5.89445152 0.02152424 -10.89422444 0.41128909 -15.5625 1.1875 C-19.66101071 3.38835843 -23.05539605 6.15133418 -26.5625 9.1875 C-27.43648437 9.86941406 -28.31046875 10.55132812 -29.2109375 11.25390625 C-31.18764154 12.87926921 -32.69570366 14.36629144 -34.25 16.375 C-36.5625 19.1875 -36.5625 19.1875 -38.5625 20.1875 C-39.46961908 22.40877878 -40.28963149 24.66602059 -41.0625 26.9375 C-45.96947788 41.2395453 -45.96947788 41.2395453 -52.5625 46.1875 C-55.28695221 47.27157523 -57.64013457 47.72607388 -60.5625 48.1875 C-60.5625 48.8475 -60.5625 49.5075 -60.5625 50.1875 C-66.87263208 50.93056228 -71.4730892 50.88573952 -76.75 47.0625 C-79.72613748 44.46235142 -80.47087488 43.74743129 -81.125 39.75 C-80.939375 38.904375 -80.75375 38.05875 -80.5625 37.1875 C-80.170625 37.744375 -79.77875 38.30125 -79.375 38.875 C-75.27258736 44.1132184 -75.27258736 44.1132184 -69.5625 47.1875 C-62.41802118 47.8879391 -57.9764987 45.77442798 -52.41796875 41.5625 C-47.27555807 36.9829877 -45.422201 32.70081059 -43.5546875 26.15625 C-42.02476714 21.57853554 -39.44454843 18.01175657 -36.5625 14.1875 C-35.985 13.32125 -35.4075 12.455 -34.8125 11.5625 C-26.24347206 2.51741495 -12.32672713 -6.27149275 0 0 Z " fill="#646464" transform="translate(188.5625,58.8125)"/>
<path d="M0 0 C2.44009226 1.43323314 3.32980289 2.63868685 5 5 C6.0719919 6.27108062 6.0719919 6.27108062 8.5625 6.375 C12.11221962 5.98775786 13.21185009 5.3865239 16.0625 3.4375 C19.66076886 0.97879805 19.66076886 0.97879805 23 1.1875 C23.66 1.455625 24.32 1.72375 25 2 C24.44273072 7.50990192 23.01636036 12.55167274 21.42211914 17.84790039 C17.08522381 32.16491846 17.08522381 32.16491846 17 47 C19.97 47 22.94 47 26 47 C25.34 47.99 24.68 48.98 24 50 C21.125 50.4375 21.125 50.4375 18 50 C15.0923196 47.81661544 14.10990638 46.61983964 13.46875 43.00390625 C13.64719359 23.35280641 13.64719359 23.35280641 19 18 C19.34760707 16.61249279 19.65336633 15.21438266 19.9375 13.8125 C20.72497367 10.10604499 21.71783977 6.57173208 23 3 C22.34773438 3.433125 21.69546875 3.86625 21.0234375 4.3125 C13.9980008 8.78888445 13.9980008 8.78888445 9.75 9.6875 C5.97066419 8.74266605 3.90715042 6.53602483 1 4 C-4.28727162 1.9129191 -9.33047136 3.99510379 -14.38671875 5.8984375 C-25.79457696 10.94869812 -32.81327482 19.90968519 -38 31 C-38.7974855 28.68004218 -39.11434828 27.38017091 -38.3984375 25 C-36.14217389 20.5908131 -34.11460225 17.91032842 -30 15 C-29.236875 14.236875 -28.47375 13.47375 -27.6875 12.6875 C-19.21344729 4.21344729 -12.65752547 -1.94327155 0 0 Z " fill="#7B7B7B" transform="translate(185,59)"/>
<path d="M0 0 C0.66 0 1.32 0 2 0 C1.84329834 0.75095947 1.68659668 1.50191895 1.52514648 2.27563477 C0.81720809 5.70222572 0.12721949 9.13219749 -0.5625 12.5625 C-0.80935547 13.74392578 -1.05621094 14.92535156 -1.31054688 16.14257812 C-2.49226363 22.08444967 -3.4546917 27.06799374 -2 33 C4.21141358 35.22050534 8.54455616 35.2630426 14.5625 32.4609375 C19.31025867 29.61532573 24.01407578 26.16788764 25.71484375 20.703125 C26.07487776 18.29174279 26.07487776 18.29174279 26 15 C26.66 15 27.32 15 28 15 C28.66 11.37 29.32 7.74 30 4 C31.81693299 11.26773195 31.10247277 20.90821871 27.62109375 27.68359375 C23.1110115 33.05174269 16.66188519 37.7793716 10 40 C4.69138124 40.34249153 1.30816509 40.50038413 -3 37 C-3 36.34 -3 35.68 -3 35 C-3.66 35 -4.32 35 -5 35 C-7.54763822 27.35708534 -5.29774489 19.6679397 -3.5625 12.0625 C-3.33240234 11.00998047 -3.10230469 9.95746094 -2.86523438 8.87304688 C-1.14372664 1.14372664 -1.14372664 1.14372664 0 0 Z " fill="#797979" transform="translate(250,72)"/>
<path d="M0 0 C1.32823367 3.98470102 0.29350798 5.24619943 -1.39453125 9.046875 C-1.65756042 9.64653076 -1.9205896 10.24618652 -2.19158936 10.86401367 C-3.05635895 12.83005916 -3.93441916 14.78986823 -4.8125 16.75 C-5.41170271 18.10666535 -6.00992172 19.46376558 -6.60717773 20.82128906 C-7.81748345 23.56912925 -9.03256911 26.31477035 -10.25195312 29.05859375 C-12.7173529 34.60995904 -15.14052001 40.17958625 -17.5625 45.75 C-17.95477783 46.64557617 -18.34705566 47.54115234 -18.7512207 48.46386719 C-20.54831566 52.58018341 -22.29641733 56.70630725 -23.94921875 60.8828125 C-26.2499329 66.6884274 -28.74640111 72.40456765 -31.25 78.125 C-31.70890625 79.176875 -32.1678125 80.22875 -32.640625 81.3125 C-33.75906585 83.87559363 -34.87887881 86.43807793 -36 89 C-36.33 88.34 -36.66 87.68 -37 87 C-37.99 86.67 -38.98 86.34 -40 86 C-36.51802067 76.65894857 -32.1670647 67.73630513 -27.875 58.75 C-27.08577936 57.09178681 -26.29688527 55.43341816 -25.50830078 53.77490234 C-23.85834093 50.30539548 -22.2069591 46.83657056 -20.5546875 43.36816406 C-16.71779467 35.3101734 -12.90094817 27.24268382 -9.08258057 19.17590332 C-7.15738042 15.10909437 -5.23100363 11.04284293 -3.3046875 6.9765625 C-2.65868559 5.61279572 -2.01268885 4.2490265 -1.36669922 2.88525391 C-0.91568848 1.93312012 -0.46467773 0.98098633 0 0 Z " fill="#91C947" transform="translate(537,39)"/>
<path d="M0 0 C2.375 2.6875 2.375 2.6875 4 5 C3.67 5.66 3.34 6.32 3 7 C1.62437146 5.71034824 0.29233607 4.37310707 -1 3 C-1 2.34 -1 1.68 -1 1 C-16.02800399 0.21982053 -16.02800399 0.21982053 -29.375 6.375 C-32.03982997 9.03982997 -32.76340646 10.53753809 -34 14 C-34.763125 14.928125 -35.52625 15.85625 -36.3125 16.8125 C-39.11045458 20.50514936 -40.11058451 24.53885108 -41.3125 28.9375 C-43.34118021 36.08843465 -45.90242738 40.48370088 -52 45 C-52.94359375 45.78310547 -52.94359375 45.78310547 -53.90625 46.58203125 C-59.3440597 50.62695937 -64.40859743 50.5452447 -71 50 C-74.14836194 42.39145864 -74.8401184 35.21570332 -74 27 C-73.34 26.34 -72.68 25.68 -72 25 C-72.03480469 25.92941406 -72.06960938 26.85882813 -72.10546875 27.81640625 C-72.34281493 37.32251384 -72.34281493 37.32251384 -69 46 C-62.52787428 46.70605008 -59.29354481 45.47632735 -54.046875 41.66796875 C-51.50566339 39.59717227 -49.28092515 37.35004409 -47 35 C-46.34 35 -45.68 35 -45 35 C-44.9175 33.700625 -44.835 32.40125 -44.75 31.0625 C-43.90161328 23.46286683 -40.5098397 17.10154784 -36 11 C-35.59265625 10.43539062 -35.1853125 9.87078125 -34.765625 9.2890625 C-26.91260393 -0.81398146 -11.74854037 -8.1120874 0 0 Z " fill="#646464" transform="translate(368,60)"/>
<path d="M0 0 C0.66 0.33 1.32 0.66 2 1 C1.27683594 2.39412109 1.27683594 2.39412109 0.5390625 3.81640625 C-0.09928433 5.06493755 -0.73728678 6.31364495 -1.375 7.5625 C-1.69210938 8.17158203 -2.00921875 8.78066406 -2.3359375 9.40820312 C-5.24572915 15.13685544 -7.29095841 20.73761225 -7.25 27.25 C-7.25515625 28.08015625 -7.2603125 28.9103125 -7.265625 29.765625 C-7.13708347 32.28468944 -7.13708347 32.28468944 -5 35 C-1.15590433 35.69892649 0.61960156 35.22189909 4 33.25 C11.39471444 26.35991174 14.06921513 15.55230409 16 6 C16.33 6 16.66 6 17 6 C17.17156976 11.06130793 17.04654436 14.33842674 15 19 C14.69162917 20.47577468 14.40164912 21.95545117 14.125 23.4375 C12.57306663 30.69188621 8.08367114 36.19247609 2 40.375 C-0.80534642 41.25167076 -2.23410905 41.01191132 -5 40 C-10.88279139 34.78570763 -10.88279139 34.78570763 -11.1328125 30.9765625 C-11.13023437 30.20054688 -11.12765625 29.42453125 -11.125 28.625 C-11.12886719 27.46871094 -11.12886719 27.46871094 -11.1328125 26.2890625 C-11.00389788 24.0671811 -10.61383717 22.13381492 -10 20 C-9.34 20 -8.68 20 -8 20 C-7.92523438 19.39414063 -7.85046875 18.78828125 -7.7734375 18.1640625 C-6.65857634 11.05955509 -4.0082335 5.92411869 0 0 Z " fill="#7D7D7D" transform="translate(170,69)"/>
<path d="M0 0 C0.33 0 0.66 0 1 0 C1.21824777 6.0018137 0.5056904 11.19233704 -1 17 C-1.66 17 -2.32 17 -3 17 C-3.22816406 17.57363281 -3.45632813 18.14726563 -3.69140625 18.73828125 C-5.34937502 21.60384519 -7.33588571 23.15128793 -9.9375 25.1875 C-10.81277344 25.88230469 -11.68804687 26.57710937 -12.58984375 27.29296875 C-16.23506895 29.8747571 -19.07786987 30.15792313 -23.4375 30.1875 C-24.85869141 30.20876953 -24.85869141 30.20876953 -26.30859375 30.23046875 C-30.1986735 29.89735597 -32.28767134 28.59360722 -35.25 26.125 C-37 24 -37 24 -37 20 C-37.66 20 -38.32 20 -39 20 C-39.33 18.35 -39.66 16.7 -40 15 C-39.01 14.67 -38.02 14.34 -37 14 C-36.78085937 14.54269531 -36.56171875 15.08539063 -36.3359375 15.64453125 C-34.68572783 19.36756525 -33.56538221 21.59795043 -30.1875 24 C-25.00801644 25.62493602 -21.00951219 25.68350162 -16.0625 23.4375 C-14.68759368 22.66061119 -13.33357751 21.84586916 -12 21 C-11.29230469 20.56042969 -10.58460938 20.12085937 -9.85546875 19.66796875 C-3.00285287 14.64610739 -1.67777054 7.95837211 0 0 Z " fill="#5F5F5F" transform="translate(379,81)"/>
<path d="M0 0 C0.66 0.33 1.32 0.66 2 1 C2 2.65 2 4.3 2 6 C0.78957031 6.05220703 0.78957031 6.05220703 -0.4453125 6.10546875 C-5.4823658 7.37303491 -8.82475819 10.15125194 -12.875 13.3125 C-13.65875 13.89451172 -14.4425 14.47652344 -15.25 15.07617188 C-15.98992188 15.64529297 -16.72984375 16.21441406 -17.4921875 16.80078125 C-18.16620605 17.31809814 -18.84022461 17.83541504 -19.53466797 18.3684082 C-21.44545549 20.13049629 -21.44545549 20.13049629 -21 24 C-25.04961997 24.96638658 -28.84202407 25.13396116 -33 25.125 C-34.19625 25.12757812 -35.3925 25.13015625 -36.625 25.1328125 C-39.55327693 25.01757938 -42.15786976 24.67823563 -45 24 C-44.505 22.515 -44.505 22.515 -44 21 C-42.97261719 21.00902344 -41.94523438 21.01804687 -40.88671875 21.02734375 C-26.79659317 20.84998076 -19.51596422 15.54671826 -9.296875 6.02734375 C-6.34467099 3.42157184 -3.57567895 1.63885285 0 0 Z " fill="#373736" transform="translate(598,92)"/>
<path d="M0 0 C0.66 0.33 1.32 0.66 2 1 C1.68546875 1.680625 1.3709375 2.36125 1.046875 3.0625 C-1.63215295 9.13065969 -3.72206861 15.13633706 -5.3125 21.5625 C-5.48362305 22.25279297 -5.65474609 22.94308594 -5.83105469 23.65429688 C-6.51045532 26.51032201 -7 29.05347413 -7 32 C2.08223304 22.62985755 5.63904999 13.95949408 7 1 C9.64489434 3.64489434 9.68165149 5.30362007 10 9 C8.0151584 20.50040575 2.40910101 30.11529195 -7 37 C-7 36.34 -7 35.68 -7 35 C-7.99 35 -8.98 35 -10 35 C-10 32.36 -10 29.72 -10 27 C-9.34 27 -8.68 27 -8 27 C-7.92523438 26.05640625 -7.85046875 25.1128125 -7.7734375 24.140625 C-6.83394031 14.96671127 -4.77191456 8.05823307 0 0 Z " fill="#707070" transform="translate(263,26)"/>
<path d="M0 0 C0.33 0 0.66 0 1 0 C0.96519531 1.24716797 0.96519531 1.24716797 0.9296875 2.51953125 C0.91164063 3.60621094 0.89359375 4.69289063 0.875 5.8125 C0.85179687 6.89144531 0.82859375 7.97039062 0.8046875 9.08203125 C0.76976283 12.19402868 0.76976283 12.19402868 3 15 C6.821339 15.6079403 8.65967042 15.18752854 12.0625 13.3125 C15.04556122 11.05787506 15.04556122 11.05787506 17.625 8.375 C20 6 20 6 24 4 C24 6.97 24 9.94 24 13 C23.29875 13.061875 22.5975 13.12375 21.875 13.1875 C17.96145722 14.29350122 16.0341977 16.30293538 13 19 C10.67313547 20.16343227 9.15278587 20.19895988 6.5625 20.25 C5.78003906 20.27578125 4.99757813 20.3015625 4.19140625 20.328125 C1.48261649 19.92253081 0.6783906 19.11466951 -1 17 C-2.4241906 14.15161879 -2.16995508 11.67212092 -2.1875 8.5 C-2.20876953 6.75203125 -2.20876953 6.75203125 -2.23046875 4.96875 C-2 2 -2 2 0 0 Z " fill="#7D7D7D" transform="translate(395,89)"/>
<path d="M0 0 C4.94153954 4.19530337 7.97434518 8.50418611 9 15 C9.37789366 19.93781048 9.49726806 23.6099613 7 28 C6.97421875 27.07058594 6.9484375 26.14117187 6.921875 25.18359375 C6.46299142 15.18201748 5.29214764 10.03171379 -2 3 C-2 2.34 -2 1.68 -2 1 C-11.06348773 -1.01410838 -21.56912143 -1.28939436 -30 3 C-33.60977611 5.74300703 -36.81424063 8.78040956 -40 12 C-40.57363281 12.56074219 -41.14726563 13.12148438 -41.73828125 13.69921875 C-42.84133246 14.78362684 -43.9243058 15.88844933 -45 17 C-42.18201773 8.61982236 -34.83746694 2.80793399 -27.12109375 -1.0703125 C-17.55529087 -5.26305851 -9.04506337 -5.25054898 0 0 Z " fill="#646464" transform="translate(81,20)"/>
<path d="M0 0 C7.45411072 -0.57656105 13.62205834 2.01095141 20.5546875 4.51171875 C28.08906158 7.08264027 35.37942137 8.51513342 43.12109375 5.9765625 C43.88550781 5.53054687 44.64992187 5.08453125 45.4375 4.625 C46.21996094 4.18414062 47.00242188 3.74328125 47.80859375 3.2890625 C48.53175781 2.86367187 49.25492188 2.43828125 50 2 C51.32830058 1.32336141 52.66001914 0.65320251 54 0 C51.54837431 3.32720629 49.72045706 5.26378671 46 7 C45.34 7.99 44.68 8.98 44 10 C40.54381386 11.38723067 36.92497653 11.09924977 33.25 11.0625 C32.07953125 11.05347656 30.9090625 11.04445313 29.703125 11.03515625 C28.81109375 11.02355469 27.9190625 11.01195313 27 11 C27 10.34 27 9.68 27 9 C25.948125 8.9175 24.89625 8.835 23.8125 8.75 C18.72373625 8.13318015 14.00273153 6.53600845 9.1484375 4.9375 C6.10226041 4.03044975 3.14255199 3.45298047 0 3 C0 2.01 0 1.02 0 0 Z " fill="#5B5B5B" transform="translate(34,97)"/>
<path d="M0 0 C2.91769927 2.01460187 4.77652046 3.78099356 6.625 6.8125 C6.375 9.125 6.375 9.125 5.625 10.8125 C4.6484375 9.02213542 3.671875 7.23177083 2.6953125 5.44140625 C1.71089976 3.64631685 1.71089976 3.64631685 -0.375 2.8125 C-9.54221222 1.99970938 -17.80290228 2.5514841 -25.30078125 8.28515625 C-31.65206684 14.24212699 -36.82581708 21.8790323 -40.375 29.8125 C-41.67810976 25.90317073 -40.79423843 24.89069014 -39 21.25 C-34.00604367 11.72342279 -27.48653817 3.96925087 -17.375 -0.1875 C-11.66845944 -1.95299658 -5.61656258 -1.97619795 0 0 Z " fill="#616161" transform="translate(132.375,58.1875)"/>
<path d="M0 0 C0.33 0.66 0.66 1.32 1 2 C1.66 2 2.32 2 3 2 C3.77746694 18.58596134 3.77746694 18.58596134 -1 25 C-1.598125 25.804375 -2.19625 26.60875 -2.8125 27.4375 C-5.77728391 29.5552028 -8.41787504 29.72445193 -12 30 C-12.66 31.98 -13.32 33.96 -14 36 C-16.53752812 33.35674154 -16.99195908 32.11659328 -17.25 28.375 C-17 25 -17 25 -16 23 C-14.783125 23.268125 -13.56625 23.53625 -12.3125 23.8125 C-8.80619999 24.23375159 -8.25816603 24.17784771 -5.1875 22.0625 C-0.08078544 14.91309962 0.43041969 8.67215971 0 0 Z " fill="#828282" transform="translate(74,29)"/>
<path d="M0 0 C0 0.66 0 1.32 0 2 C0.99 2.33 1.98 2.66 3 3 C5.71232939 7.06849409 5.30699887 9.16476784 5 14 C4.34 14.66 3.68 15.32 3 16 C2.505 10.555 2.505 10.555 2 5 C1.34 5 0.68 5 0 5 C0 4.34 0 3.68 0 3 C-3.82576995 2.34880511 -7.6214611 1.86712359 -11.5 1.6875 C-12.1909375 1.65011719 -12.881875 1.61273438 -13.59375 1.57421875 C-20.40470369 2.77940374 -25.18365557 7.7361251 -29.8125 12.5 C-30.38419922 13.06847656 -30.95589844 13.63695313 -31.54492188 14.22265625 C-34.30896463 17.02242694 -36.35018035 19.38903714 -38 23 C-38.33 22.01 -38.66 21.02 -39 20 C-37.85546875 18.1328125 -37.85546875 18.1328125 -36.1875 16.125 C-34.33424892 13.80632057 -33.06602581 12.18487225 -32.0625 9.375 C-29.90050945 4.54231524 -25.60866534 1.70781275 -20.875 -0.375 C-14.12438974 -1.46380811 -6.62419381 -2.01465749 0 0 Z " fill="#808080" transform="translate(367,61)"/>
<path d="M0 0 C0.33 0 0.66 0 1 0 C1.27572009 10.57326614 0.38807128 23.11163068 -6.9375 31.3125 C-8.60207773 32.89939744 -10.2925281 34.45935007 -12 36 C-13.14258038 37.14393095 -14.27754005 38.29550599 -15.40625 39.453125 C-25.68937321 49.97740299 -25.68937321 49.97740299 -30.625 50.0625 C-31.73875 50.041875 -32.8525 50.02125 -34 50 C-34 49.01 -34 48.02 -34 47 C-33.2678125 47.07605469 -32.535625 47.15210938 -31.78125 47.23046875 C-26.73654371 46.81243831 -23.95404733 42.80345556 -20.49023438 39.38916016 C-18.94868445 37.9521649 -17.33785474 36.67646314 -15.671875 35.38671875 C-4.24410307 26.0235393 -2.32742091 14.11132945 0 0 Z " fill="#656565" transform="translate(236,57)"/>
<path d="M0 0 C2.82199195 3.35204864 3.46382898 5.56132468 3.296875 10.02734375 C2.86782839 12.87824557 1.80350708 14.78029898 0 17 C-0.66 17 -1.32 17 -2 17 C-2.185625 17.5775 -2.37125 18.155 -2.5625 18.75 C-4.63893288 22.00006886 -7.49533576 23.59668008 -11 25 C-14.375 25.3125 -14.375 25.3125 -17 25 C-18.76344942 23.23655058 -18.25558048 20.83111557 -18.3125 18.4375 C-18.27252088 12.8470864 -17.44426188 8.4925155 -14 4 C-13.01 3.34 -12.02 2.68 -11 2 C-11.28875 2.680625 -11.5775 3.36125 -11.875 4.0625 C-14.09484367 9.85875846 -15.25461192 14.76200805 -15 21 C-6.33923643 17.38250835 -6.33923643 17.38250835 -1 10 C-0.42555921 6.66824342 -0.13346191 3.37658645 0 0 Z " fill="#777777" transform="translate(357,66)"/>
<path d="M0 0 C0.625 1.8125 0.625 1.8125 1 4 C0.34 4.99 -0.32 5.98 -1 7 C-1.27483709 8.74341101 -1.49878302 10.49517714 -1.6875 12.25 C-2.7624606 18.43102347 -4.96506966 21.37268459 -10 25 C-16.90732148 29.75274414 -22.59331877 32.29044436 -31 31 C-36.58457785 29.89969284 -41.97217079 28.74028606 -47 26 C-42.47907032 24.54393481 -39.48351204 25.72967159 -35 27 C-35 27.66 -35 28.32 -35 29 C-32.9163691 28.85848172 -30.83310062 28.71162064 -28.75 28.5625 C-27.58984375 28.48128906 -26.4296875 28.40007812 -25.234375 28.31640625 C-19.7502403 27.77991481 -17.79458023 27.02455479 -14 23 C-12.700625 21.9790625 -12.700625 21.9790625 -11.375 20.9375 C-8.36725489 18.4838132 -7.1651893 16.63534347 -6.1875 12.875 C-4.94777617 8.16808105 -2.46992771 4.1573974 0 0 Z " fill="#7F7F7F" transform="translate(96,79)"/>
<path d="M0 0 C0 3 0 3 -1.5 6.6875 C-3.19211625 10.96942798 -3.24497132 14.42720194 -3 19 C4.29840747 16.13566001 4.29840747 16.13566001 9.5625 10.625 C11.04543292 6.88543002 11.67531848 3.97734861 12 0 C12.66 0.33 13.32 0.66 14 1 C15.18435359 5.30997849 15.45480168 8.93879609 13.6875 13.0625 C13.130625 13.701875 12.57375 14.34125 12 15 C11.34 15 10.68 15 10 15 C9.773125 15.639375 9.54625 16.27875 9.3125 16.9375 C8 19 8 19 5.5625 19.5625 C4.716875 19.706875 3.87125 19.85125 3 20 C2.2884375 20.7734375 2.2884375 20.7734375 1.5625 21.5625 C0 23 0 23 -3.1875 23.1875 C-4.5796875 23.0946875 -4.5796875 23.0946875 -6 23 C-8.11912545 18.7617491 -7.25196473 13.88187654 -6 9.5 C-5.67 8.675 -5.34 7.85 -5 7 C-4.34 7 -3.68 7 -3 7 C-2.814375 5.824375 -2.814375 5.824375 -2.625 4.625 C-2 2 -2 2 0 0 Z " fill="#777777" transform="translate(112,68)"/>
<path d="M0 0 C2.22096082 2.22096082 2.6688046 3.66745447 3.03515625 6.74609375 C2.92979899 13.50066463 0.50740487 25.56682592 -4.4765625 30.4453125 C-6.27672756 32.28240402 -6.94304967 33.92489275 -7.875 36.3125 C-9.71167342 40.6191825 -11.68390811 43.68390811 -15 47 C-15.99 47 -16.98 47 -18 47 C-16.69379729 43.35671891 -15.10389221 40.62149956 -12.75 37.5625 C-6.22676776 28.47900124 -1.12209192 16.83137874 -0.375 5.625 C-0.30023438 4.56539062 -0.22546875 3.50578125 -0.1484375 2.4140625 C-0.09945313 1.61742188 -0.05046875 0.82078125 0 0 Z " fill="#696969" transform="translate(316,27)"/>
<path d="M0 0 C2.99406717 3.47813791 2.21835008 8.41999226 2.125 12.75 C2.11597656 13.54277344 2.10695313 14.33554687 2.09765625 15.15234375 C2.07417012 17.10169281 2.03830137 19.05088575 2 21 C1.67 21 1.34 21 1 21 C0.95101563 19.94039062 0.90203125 18.88078125 0.8515625 17.7890625 C0.77653291 16.40101503 0.70098515 15.01299549 0.625 13.625 C0.5940625 12.92632812 0.563125 12.22765625 0.53125 11.5078125 C0.40500502 7.29814173 0.40500502 7.29814173 -2 4 C-8.47067895 4.11982739 -13.59442354 6.32003989 -19.4609375 8.94140625 C-22 10 -22 10 -24 10 C-24.103125 10.721875 -24.20625 11.44375 -24.3125 12.1875 C-25.05986932 15.24491993 -26.28045189 17.38329635 -28 20 C-29 18 -29 18 -28.41796875 15.42578125 C-26.24962788 9.93953468 -24.12385482 6.27314671 -18.765625 3.6171875 C-4.98741734 -2.21558237 -4.98741734 -2.21558237 0 0 Z " fill="#606060" transform="translate(321,17)"/>
<path d="M0 0 C0.495 1.485 0.495 1.485 1 3 C-0.0621875 2.74863281 -1.124375 2.49726563 -2.21875 2.23828125 C-12.91808978 -0.37135481 -12.91808978 -0.37135481 -23 3 C-23.62648438 3.309375 -24.25296875 3.61875 -24.8984375 3.9375 C-34.81089254 9.26593433 -41.78543782 18.77414122 -46 29 C-46.91799278 26.53358568 -47.1960934 25.43822612 -46.1015625 22.9921875 C-42.45799027 17.76780615 -38.49033861 13.02120566 -34.1484375 8.359375 C-31.94196334 6.01516093 -31.94196334 6.01516093 -30.0078125 3.31640625 C-23.73500547 -3.92050926 -8.06999997 -4.14405404 0 0 Z " fill="#808080" transform="translate(79,21)"/>
<path d="M0 0 C1.50694085 3.01388171 0.47192712 5.11217251 -0.25 8.375 C-1.58906918 14.59841032 -2.57180859 20.81961203 -3.4375 27.125 C-4.55187448 35.07314551 -6.27759973 42.4270287 -9 50 C-10.37837528 45.86487417 -9.48041702 42.27304203 -8.8203125 38.0625 C-8.68809296 37.18601807 -8.55587341 36.30953613 -8.41964722 35.40649414 C-8.13872097 33.55336664 -7.85438124 31.70075389 -7.56689453 29.84863281 C-7.12688722 27.01216576 -6.69729988 24.1742734 -6.26953125 21.3359375 C-5.99540207 19.53636524 -5.72068225 17.73688284 -5.4453125 15.9375 C-5.31609406 15.08744385 -5.18687561 14.2373877 -5.05374146 13.36157227 C-4.93046478 12.57065186 -4.80718811 11.77973145 -4.68017578 10.96484375 C-4.57279083 10.2699585 -4.46540588 9.57507324 -4.35476685 8.85913086 C-4 7 -4 7 -3 4 C-2.34 4 -1.68 4 -1 4 C-0.67 2.68 -0.34 1.36 0 0 Z " fill="#7C7C7C" transform="translate(53,31)"/>
<path d="M0 0 C2.2109885 0.42793326 3.98119242 0.99059621 6 2 C6 2.66 6 3.32 6 4 C6.66 4.33 7.32 4.66 8 5 C6.98679687 5.38671875 5.97359375 5.7734375 4.9296875 6.171875 C3.57797833 6.69753968 2.226424 7.22360263 0.875 7.75 C0.20984375 8.00265625 -0.4553125 8.2553125 -1.140625 8.515625 C-4.47505563 9.82324485 -7.38887527 11.17027942 -10.3046875 13.265625 C-11.63886719 14.12414062 -11.63886719 14.12414062 -13 15 C-13.99 14.67 -14.98 14.34 -16 14 C-16 13.01 -16 12.02 -16 11 C-13.07219382 8.39905104 -9.62419081 6.45309704 -6.3125 4.375 C-2.98122189 2.41579346 -2.98122189 2.41579346 0 0 Z " fill="#373834" transform="translate(494,124)"/>
<path d="M0 0 C2.4375 2.1875 2.4375 2.1875 3.4375 5.1875 C4.37851563 4.6821875 5.31953125 4.176875 6.2890625 3.65625 C7.54654019 2.99935867 8.80437169 2.34314433 10.0625 1.6875 C10.67996094 1.35363281 11.29742187 1.01976562 11.93359375 0.67578125 C15.95262794 -1.39719428 18.92691245 -2.20110447 23.4375 -1.8125 C23.1075 -0.1625 22.7775 1.4875 22.4375 3.1875 C21.6125 2.919375 20.7875 2.65125 19.9375 2.375 C16.08482747 2.16860683 15.47380373 2.54629975 12.4375 4.625 C9.77611678 6.43819429 8.42876543 7.18917973 5.1875 7.8125 C1.49062593 6.97230135 0.52990049 5.25137215 -1.5625 2.1875 C-4.25076826 0.84336587 -6.37485402 1.05510137 -9.375 1.0625 C-10.41269531 1.05992188 -11.45039063 1.05734375 -12.51953125 1.0546875 C-15.31592942 1.17673825 -17.84189879 1.55386645 -20.5625 2.1875 C-19.5625 0.1875 -19.5625 0.1875 -17.125 -0.9375 C-10.97839443 -2.4471926 -5.73259246 -2.91658213 0 0 Z " fill="#5C5C5C" transform="translate(188.5625,58.8125)"/>
<path d="M0 0 C3.1875 2.25 3.1875 2.25 5 5 C5.433125 5.639375 5.86625 6.27875 6.3125 6.9375 C7.26271865 9.78815595 7.31102186 12.0141901 7 15 C5.48046875 17.1875 5.48046875 17.1875 4 19 C4.03480469 18.25234375 4.06960937 17.5046875 4.10546875 16.734375 C4.14607422 15.25710937 4.14607422 15.25710937 4.1875 13.75 C4.22230469 12.77546875 4.25710937 11.8009375 4.29296875 10.796875 C3.95625205 7.58235291 3.24189831 6.28959828 1 4 C-1.71357535 3.12865812 -1.71357535 3.12865812 -5 3 C-5.68449219 2.93683594 -6.36898437 2.87367187 -7.07421875 2.80859375 C-13.11059441 2.48201845 -17.94386097 3.62328524 -23 7 C-26.83874092 10.65405922 -30.06355758 14.59533638 -33 19 C-33.66 19 -34.32 19 -35 19 C-31.88752607 11.96026839 -26.13156533 5.53736522 -19.0625 2.4375 C-17.71470493 1.9406937 -16.36157352 1.45769596 -15 1 C-10.56931344 -1.21534328 -4.81047056 -0.53714932 0 0 Z " fill="#7A7A7A" transform="translate(132,60)"/>
<path d="M0 0 C0 0.66 0 1.32 0 2 C-1.98 2 -3.96 2 -6 2 C-6 2.99 -6 3.98 -6 5 C-6.75925781 5.20496094 -7.51851563 5.40992188 -8.30078125 5.62109375 C-9.29464844 5.89050781 -10.28851563 6.15992188 -11.3125 6.4375 C-12.29863281 6.70433594 -13.28476563 6.97117187 -14.30078125 7.24609375 C-16.21517526 7.78079425 -18.11433615 8.37144538 -20 9 C-20.12834229 9.72904541 -20.25668457 10.45809082 -20.38891602 11.20922852 C-20.96838676 13.85562488 -21.75144497 16.15052658 -22.77734375 18.65234375 C-23.12603516 19.51150391 -23.47472656 20.37066406 -23.83398438 21.25585938 C-24.19814453 22.14080078 -24.56230469 23.02574219 -24.9375 23.9375 C-28.19282135 31.88513167 -28.19282135 31.88513167 -31 40 C-32.06163113 36.79127499 -31.95121937 35.02568072 -30.77734375 31.875 C-30.48956055 31.09133057 -30.20177734 30.30766113 -29.90527344 29.50024414 C-29.42622559 28.26262329 -29.42622559 28.26262329 -28.9375 27 C-28.61168945 26.1536499 -28.28587891 25.3072998 -27.95019531 24.43530273 C-27.28745156 22.73754722 -26.61713382 21.04272723 -25.93896484 19.35107422 C-25.36254935 17.90778737 -24.79762685 16.45976547 -24.25244141 15.00439453 C-20.91173913 6.12586386 -20.91173913 6.12586386 -16.3203125 3.421875 C-13.55011478 2.37845835 -10.89218937 1.61601012 -8 1 C-6.96746094 0.71189453 -6.96746094 0.71189453 -5.9140625 0.41796875 C-4 0 -4 0 0 0 Z " fill="#5F5F5F" transform="translate(269,17)"/>
<path d="M0 0 C3.44045099 3.17459796 5.96840997 6.72110294 8.5 10.625 C9.37487494 11.95450938 10.24988109 13.28393244 11.125 14.61328125 C11.58648437 15.31791504 12.04796875 16.02254883 12.5234375 16.74853516 C15.16725993 20.7798398 17.83293708 24.79654981 20.5 28.8125 C21.01626953 29.59512207 21.53253906 30.37774414 22.06445312 31.18408203 C22.79051758 32.27825439 22.79051758 32.27825439 23.53125 33.39453125 C23.95986328 34.04268799 24.38847656 34.69084473 24.83007812 35.35864258 C26.03607021 37.14632688 26.03607021 37.14632688 28 39 C26.68 39.66 25.36 40.32 24 41 C23.52167725 40.20940186 23.04335449 39.41880371 22.55053711 38.60424805 C20.74179532 35.61601541 18.93192612 32.62847137 17.12133789 29.64135742 C16.34420626 28.35874566 15.56749958 27.0758763 14.79125977 25.79272461 C13.66279349 23.92750919 12.53295128 22.06313695 11.40234375 20.19921875 C11.03249359 19.58891815 10.66264343 18.97861755 10.28158569 18.349823 C7.35208633 13.53437639 4.31444929 8.79468652 1.21704102 4.08520508 C0 2 0 2 0 0 Z " fill="#5FA63B" transform="translate(459,91)"/>
<path d="M0 0 C2.84183924 1.96222233 4.64633716 3.99671057 6.625 6.8125 C6.295 7.4725 5.965 8.1325 5.625 8.8125 C4.24937146 7.52284824 2.91733607 6.18560707 1.625 4.8125 C1.625 4.1525 1.625 3.4925 1.625 2.8125 C-14.25107763 1.94197989 -14.25107763 1.94197989 -27.921875 9.2734375 C-30.70553413 12.22172163 -33.05364348 15.49510043 -35.375 18.8125 C-35.705 18.1525 -36.035 17.4925 -36.375 16.8125 C-27.6573934 4.79312959 -15.72335682 -5.53229221 0 0 Z " fill="#595959" transform="translate(365.375,58.1875)"/>
<path d="M0 0 C0.33 0 0.66 0 1 0 C1.46086526 6.96418622 1.71605135 13.40654374 -3 19 C-6.17905213 21.13863507 -9.14059951 22 -13 22 C-13 22.66 -13 23.32 -13 24 C-14.5778125 24.6496875 -14.5778125 24.6496875 -16.1875 25.3125 C-19.29460982 26.63870541 -22.14518195 28.1832976 -25 30 C-23.82638517 25.43594232 -21.64615056 23.5634873 -17.8671875 21.0703125 C-13.63796735 18.64603149 -9.8483148 17.71480501 -5 18 C-2.53444967 12.0122349 -0.7748395 6.45699584 0 0 Z " fill="#636363" transform="translate(25,80)"/>
<path d="M0 0 C0.66 0 1.32 0 2 0 C2.24234375 0.69867188 2.4846875 1.39734375 2.734375 2.1171875 C3.06953125 3.02726562 3.4046875 3.93734375 3.75 4.875 C4.07484375 5.77992187 4.3996875 6.68484375 4.734375 7.6171875 C6.19381738 10.3649031 7.20325353 10.82900453 10 12 C10.33 12.66 10.66 13.32 11 14 C17.36613156 14.8349025 20.45630686 14.13198759 25.6875 10.3125 C27.47660247 8.8978024 29.24913538 7.4617558 31 6 C32.00546875 5.18595703 32.00546875 5.18595703 33.03125 4.35546875 C34.37189435 3.25829047 35.68969441 2.13323727 37 1 C37.495 1.99 37.495 1.99 38 3 C37.34 3 36.68 3 36 3 C35.77183594 3.57363281 35.54367187 4.14726563 35.30859375 4.73828125 C33.65062498 7.60384519 31.66411429 9.15128793 29.0625 11.1875 C28.18722656 11.88230469 27.31195313 12.57710937 26.41015625 13.29296875 C22.76493105 15.8747571 19.92213013 16.15792313 15.5625 16.1875 C14.14130859 16.20876953 14.14130859 16.20876953 12.69140625 16.23046875 C8.8013265 15.89735597 6.71232866 14.59360722 3.75 12.125 C2 10 2 10 2 6 C1.34 6 0.68 6 0 6 C-0.38218767 4.34385343 -0.71395102 2.67542976 -1 1 C-0.67 0.67 -0.34 0.34 0 0 Z " fill="#767676" transform="translate(340,95)"/>
<path d="M0 0 C0.66 0.33 1.32 0.66 2 1 C2 2.65 2 4.3 2 6 C1.19304688 6.02964844 0.38609375 6.05929688 -0.4453125 6.08984375 C-5.5244778 7.39033333 -8.83633288 10.3144533 -12.875 13.5625 C-14.050625 14.48579102 -14.050625 14.48579102 -15.25 15.42773438 C-17.17492703 16.94185381 -19.09094633 18.46595037 -21 20 C-21.99 19.34 -22.98 18.68 -24 18 C-23.40574219 17.52691406 -22.81148437 17.05382812 -22.19921875 16.56640625 C-21.37035156 15.90511719 -20.54148437 15.24382812 -19.6875 14.5625 C-18.78257812 13.840625 -17.87765625 13.11875 -16.9453125 12.375 C-13.03986724 9.22578154 -9.19131054 6.00940151 -5.34765625 2.78515625 C-3 1 -3 1 0 0 Z " fill="#2F2F2E" transform="translate(598,92)"/>
<path d="M0 0 C0.33 0.66 0.66 1.32 1 2 C0.23381815 4.02667457 -0.61836422 6.02081764 -1.5 8 C-5.13794464 16.48311905 -7.34443137 25.30479867 -9.55078125 34.25 C-9.82664062 35.33796875 -10.1025 36.4259375 -10.38671875 37.546875 C-10.62608154 38.52495117 -10.86544434 39.50302734 -11.11206055 40.51074219 C-12.02976541 43.08344462 -12.919833 44.2766301 -15 46 C-14.40984815 40.49191603 -13.43336231 35.35121931 -12 30 C-11.34 30 -10.68 30 -10 30 C-10.00902344 29.319375 -10.01804687 28.63875 -10.02734375 27.9375 C-9.74610059 18.74207132 -6.74377482 6.74377482 0 0 Z " fill="#7D7D7D" transform="translate(311,27)"/>
<path d="M0 0 C0.33 0 0.66 0 1 0 C1.55203614 3.15449223 1.48939102 5.24570925 -0.27734375 7.96875 C-4.83093956 13.33806933 -10.10176204 18.86301393 -17 20.875 C-17.99 20.91625 -18.98 20.9575 -20 21 C-21.299375 21.103125 -22.59875 21.20625 -23.9375 21.3125 C-28.57094633 21.25012668 -31.28683262 19.72804134 -35 17 C-35.9375 14.75 -35.9375 14.75 -36 13 C-33.28775382 14.61268692 -30.62647188 16.24901874 -28 18 C-25.26127045 18.45772063 -25.26127045 18.45772063 -22.3125 18.625 C-21.31863281 18.69976562 -20.32476562 18.77453125 -19.30078125 18.8515625 C-18.54152344 18.90054688 -17.78226563 18.94953125 -17 19 C-17 18.34 -17 17.68 -17 17 C-16.41992188 16.78085938 -15.83984375 16.56171875 -15.2421875 16.3359375 C-9.84968308 14.14690105 -5.38224173 11.87272114 -2 7 C-1.0162867 4.63813762 -0.50565596 2.52827979 0 0 Z " fill="#7A7A7A" transform="translate(145,90)"/>
<path d="M0 0 C0 0.33 0 0.66 0 1 C-1.11375 1.226875 -2.2275 1.45375 -3.375 1.6875 C-14.81126915 4.64723867 -23.60049452 11.05894754 -29.9609375 21.09375 C-31.39077468 23.69833604 -32.74150326 26.30906794 -34 29 C-34.7974855 26.68004218 -35.11434828 25.38017091 -34.3984375 23 C-32.14217389 18.5908131 -30.11460225 15.91032842 -26 13 C-25.236875 12.236875 -24.47375 11.47375 -23.6875 10.6875 C-15.69219085 2.69219085 -11.61045746 -0.23220915 0 0 Z " fill="#808080" transform="translate(181,61)"/>
<path d="M0 0 C1.37344308 4.12032924 0.10493772 5.67417502 -1.640625 9.609375 C-1.92347351 10.25440979 -2.20632202 10.89944458 -2.4977417 11.56402588 C-3.40615 13.63013241 -4.32777555 15.69002865 -5.25 17.75 C-5.8563613 19.12200171 -6.4618402 20.49439377 -7.06640625 21.8671875 C-8.18885818 24.41366736 -9.31735134 26.95711527 -10.45019531 29.49902344 C-11.99478468 32.98821869 -13.50369192 36.48990595 -15 40 C-15.99 40 -16.98 40 -18 40 C-16.49230317 35.10166053 -14.5030873 30.5897018 -12.3046875 25.9765625 C-11.95238068 25.23038666 -11.60007385 24.48421082 -11.23709106 23.71542358 C-10.11957157 21.35043038 -8.99736523 18.98769677 -7.875 16.625 C-7.11296975 15.01447027 -6.35124774 13.40379465 -5.58984375 11.79296875 C-3.73012511 7.86028208 -1.86620201 3.92961396 0 0 Z " fill="#9ED14E" transform="translate(537,39)"/>
<path d="M0 0 C2.74637817 0.37881078 3.80049058 0.77832287 5.6875 2.875 C8.95259302 8.16134108 8.52359958 13.99605818 8 20 C7.00253749 24.14112399 5.79884573 28.13313819 4 32 C3.01 32.495 3.01 32.495 2 33 C2.2165625 32.41734375 2.433125 31.8346875 2.65625 31.234375 C5.5603905 22.68329464 6.7770122 13.49827744 3 5 C0.03 5 -2.94 5 -6 5 C-6 4.34 -6 3.68 -6 3 C-4.02 3 -2.04 3 0 3 C0 2.01 0 1.02 0 0 Z " fill="#6F6F6F" transform="translate(269,16)"/>
<path d="M0 0 C0 3 0 3 -1.35546875 4.71875 C-9.87280702 13 -9.87280702 13 -14 13 C-14 13.66 -14 14.32 -14 15 C-20.31013208 15.74306228 -24.9105892 15.69823952 -30.1875 11.875 C-33.16363748 9.27485142 -33.90837488 8.55993129 -34.5625 4.5625 C-34.376875 3.716875 -34.19125 2.87125 -34 2 C-33.608125 2.556875 -33.21625 3.11375 -32.8125 3.6875 C-28.71008736 8.9257184 -28.71008736 8.9257184 -23 12 C-16.96808176 12.59136453 -12.90552364 11.37544538 -8 8 C-5.17576281 5.47025592 -2.55510596 2.79974377 0 0 Z " fill="#5D5D5D" transform="translate(142,94)"/>
<path d="M0 0 C0.33 0 0.66 0 1 0 C1.69116302 4.83814113 2.07056268 7.5254514 -0.86328125 11.56640625 C-4.45977934 15.23353932 -7.00287217 17.76177364 -12 19 C-12.33 19.99 -12.66 20.98 -13 22 C-15.52475462 23.26237731 -17.31200466 23.09856404 -20.125 23.0625 C-21.03507813 23.05347656 -21.94515625 23.04445313 -22.8828125 23.03515625 C-23.93082031 23.01775391 -23.93082031 23.01775391 -25 23 C-25 22.34 -25 21.68 -25 21 C-25.639375 20.7525 -26.27875 20.505 -26.9375 20.25 C-29 19 -29 19 -29.75 16.875 C-29.8325 16.25625 -29.915 15.6375 -30 15 C-29.01 15.495 -29.01 15.495 -28 16 C-28 16.66 -28 17.32 -28 18 C-21.78858642 20.22050534 -17.45544384 20.2630426 -11.4375 17.4609375 C-6.68974133 14.61532573 -1.98592422 11.16788764 -0.28515625 5.703125 C0.07487776 3.29174279 0.07487776 3.29174279 0 0 Z " fill="#5D5D5D" transform="translate(276,87)"/>
<path d="M0 0 C2 2 2 2 2.23046875 4.64453125 C2.20919922 6.21267578 2.20919922 6.21267578 2.1875 7.8125 C2.18105469 8.85019531 2.17460938 9.88789062 2.16796875 10.95703125 C2.01429286 13.74106653 1.62662052 16.28798637 1 19 C0.34 19 -0.32 19 -1 19 C-1.12375 20.1446875 -1.12375 20.1446875 -1.25 21.3125 C-2.18084016 24.64801058 -3.04135787 25.28078903 -6 27 C-8.796875 27.29296875 -8.796875 27.29296875 -11.75 27.1875 C-13.22726563 27.14689453 -13.22726563 27.14689453 -14.734375 27.10546875 C-15.48203125 27.07066406 -16.2296875 27.03585938 -17 27 C-16.67 25.68 -16.34 24.36 -16 23 C-14.783125 23.268125 -13.56625 23.53625 -12.3125 23.8125 C-8.80619999 24.23375159 -8.25816603 24.17784771 -5.1875 22.0625 C-0.08078544 14.91309962 0.43041969 8.67215971 0 0 Z " fill="#6C6C6C" transform="translate(74,29)"/>
<path d="M0 0 C-0.33 1.98 -0.66 3.96 -1 6 C-1.33 5.34 -1.66 4.68 -2 4 C-4.61043808 4.36948663 -7.20986423 4.76901944 -9.8125 5.1875 C-10.91948242 5.33928711 -10.91948242 5.33928711 -12.04882812 5.49414062 C-15.67939819 6.10197362 -17.58204011 6.462623 -19.88671875 9.42578125 C-20.43779297 10.70001953 -20.43779297 10.70001953 -21 12 C-21.66 12.99 -22.32 13.98 -23 15 C-22.53331286 10.23979118 -22.04211382 6.75936017 -19 3 C-16.3915485 2.13051617 -14.23788446 1.59021847 -11.5625 1.1875 C-10.89412109 1.06697266 -10.22574219 0.94644531 -9.53710938 0.82226562 C-6.2935132 0.25969939 -3.30218111 0 0 0 Z " fill="#5B5B5B" transform="translate(413,33)"/>
<path d="M0 0 C0.33 0 0.66 0 1 0 C1.52980289 9.53645208 -0.81836818 18.54380492 -7 26 C-10.50310129 29.38729629 -13.45310386 31.73731952 -18.3125 32.5625 C-21.215441 31.9549077 -22.24220983 31.34372023 -24 29 C-23.505 27.515 -23.505 27.515 -23 26 C-22.34 26.99 -21.68 27.98 -21 29 C-17.15590433 29.69892649 -15.38039844 29.22189909 -12 27.25 C-4.60528556 20.35991174 -1.93078487 9.55230409 0 0 Z " fill="#616161" transform="translate(186,75)"/>
<path d="M0 0 C0.66 0.33 1.32 0.66 2 1 C1.68546875 1.680625 1.3709375 2.36125 1.046875 3.0625 C-1.62245851 9.10870121 -3.7181177 15.0989808 -5.3125 21.5 C-5.48362305 22.18191406 -5.65474609 22.86382812 -5.83105469 23.56640625 C-6.61431833 26.84276061 -7 29.60532873 -7 33 C-6.34 33.33 -5.68 33.66 -5 34 C-5.33 34.99 -5.66 35.98 -6 37 C-6.33 36.34 -6.66 35.68 -7 35 C-7.99 35 -8.98 35 -10 35 C-10 32.36 -10 29.72 -10 27 C-9.34 27 -8.68 27 -8 27 C-7.92523438 26.05640625 -7.85046875 25.1128125 -7.7734375 24.140625 C-6.83394031 14.96671127 -4.77191456 8.05823307 0 0 Z " fill="#797979" transform="translate(263,26)"/>
<path d="M0 0 C0.33 1.32 0.66 2.64 1 4 C0.34 4 -0.32 4 -1 4 C-1.3403125 4.86625 -1.3403125 4.86625 -1.6875 5.75 C-3.96371561 9.6520839 -7.76560341 12.46021942 -12 14 C-15.0625 14.375 -15.0625 14.375 -18 14 C-19.9375 12.1875 -19.9375 12.1875 -21 10 C-20.67 9.01 -20.34 8.02 -20 7 C-19.01 8.485 -19.01 8.485 -18 10 C-14.178661 10.6079403 -12.34032958 10.18752854 -8.9375 8.3125 C-6.05638061 6.04438473 -3.518016 3.66190263 -1 1 C-0.67 0.67 -0.34 0.34 0 0 Z " fill="#646464" transform="translate(416,94)"/>
<path d="M0 0 C0.33 0 0.66 0 1 0 C1.45687914 8.02076705 0.67500233 15.74288859 -0.375 23.6875 C-0.50108643 24.68023926 -0.62717285 25.67297852 -0.75708008 26.69580078 C-0.88622803 27.62505371 -1.01537598 28.55430664 -1.1484375 29.51171875 C-1.26364746 30.35178467 -1.37885742 31.19185059 -1.49755859 32.05737305 C-1.66336426 32.69843994 -1.82916992 33.33950684 -2 34 C-2.99 34.495 -2.99 34.495 -4 35 C-4.29144209 26.87503991 -3.44767194 19.2991496 -2 11.3125 C-1.80921875 10.21744141 -1.6184375 9.12238281 -1.421875 7.99414062 C-0.95614899 5.32785924 -0.48209129 2.66336205 0 0 Z " fill="#707070" transform="translate(226,103)"/>
<path d="M0 0 C5.5531275 -0.21776971 8.98131287 0.46550071 13.875 2.953125 C14.555625 3.29859375 15.23625 3.6440625 15.9375 4 C16.95650391 4.51820312 16.95650391 4.51820312 17.99609375 5.046875 C20.59196552 6.28155865 23.24956755 7.17487027 26 8 C21.82183505 9.79682741 18.16651806 8.01913834 14.125 6.625 C9.42059653 5.03650013 4.94662003 3.66678577 0 3 C0 2.01 0 1.02 0 0 Z " fill="#5F5F5F" transform="translate(34,97)"/>
<path d="M0 0 C0 3 0 3 -1.4375 6.5625 C-3.30420375 11.29089581 -3.70040114 15.95847434 -4 21 C-2.02 21 -0.04 21 2 21 C0 23 0 23 -3.125 23.125 C-4.548125 23.063125 -4.548125 23.063125 -6 23 C-8.11912545 18.7617491 -7.25196473 13.88187654 -6 9.5 C-5.67 8.675 -5.34 7.85 -5 7 C-4.34 7 -3.68 7 -3 7 C-2.814375 5.824375 -2.814375 5.824375 -2.625 4.625 C-2 2 -2 2 0 0 Z " fill="#828282" transform="translate(112,68)"/>
<path d="M0 0 C0.33 0.66 0.66 1.32 1 2 C0.0925 2.0825 -0.815 2.165 -1.75 2.25 C-7.37677942 3.03405943 -12.66200263 5.12701847 -18 7 C-18.99 7.33 -19.98 7.66 -21 8 C-21.0825 9.03125 -21.165 10.0625 -21.25 11.125 C-22.10253301 15.52975387 -23.34241489 17.48512937 -26 21 C-26.92508059 18.47066572 -27.05322155 17.19086348 -26.3203125 14.5625 C-24.14924905 9.90819404 -22.50337529 6.70752591 -17.6875 4.5625 C-16.13347155 4.01690931 -14.5706882 3.49559277 -13 3 C-11.58228515 2.41921878 -10.16555574 1.83602402 -8.75 1.25 C-5.49815233 0.16605078 -3.36567477 -0.31553201 0 0 Z " fill="#7B7B7B" transform="translate(319,20)"/>
<path d="M0 0 C2.04535242 7.1192479 1.08666778 17.2182499 -2.51953125 23.75390625 C-4.23691884 25.72572163 -5.95655536 27.37313742 -8 29 C-9.4540625 30.2375 -9.4540625 30.2375 -10.9375 31.5 C-11.618125 31.995 -12.29875 32.49 -13 33 C-13.66 32.67 -14.32 32.34 -15 32 C-14.30132812 31.48953125 -13.60265625 30.9790625 -12.8828125 30.453125 C-7.8984423 26.47127685 -4.50403301 23.622426 -3.5625 17.125 C-3.47355469 16.12210938 -3.38460938 15.11921875 -3.29296875 14.0859375 C-2.83193027 9.22966555 -1.37728045 4.66438978 0 0 Z " fill="#7F7F7F" transform="translate(280,76)"/>
<path d="M0 0 C0.33 0.99 0.66 1.98 1 3 C0.00742188 2.74863281 -0.98515625 2.49726563 -2.0078125 2.23828125 C-11.94228536 -0.06705744 -19.09661988 -0.01743613 -29 3 C-28 1 -28 1 -26.13671875 0.1484375 C-17.93562902 -2.44138031 -7.98738114 -4.10162815 0 0 Z " fill="#717171" transform="translate(79,21)"/>
<path d="M0 0 C0.33 0.66 0.66 1.32 1 2 C-1.6697832 7.75910376 -5.77124768 12.78023278 -11 16.375 C-13.71259881 17.22268713 -15.3197197 16.89342677 -18 16 C-19.8125 14.4375 -19.8125 14.4375 -21 13 C-20.67 12.34 -20.34 11.68 -20 11 C-19.34 11.66 -18.68 12.32 -18 13 C-14.85826151 13.59842638 -12.80039172 13.43251937 -9.96875 11.90234375 C-5.17456248 8.54820136 -2.52146419 5.2530504 0 0 Z " fill="#767676" transform="translate(183,93)"/>
<path d="M0 0 C0.66 0.33 1.32 0.66 2 1 C-2.76008307 6.5930976 -7.74595676 11.86877855 -13 17 C-13.99 16.67 -14.98 16.34 -16 16 C-5.62642369 4.29384966 -5.62642369 4.29384966 0 0 Z " fill="#93B64E" transform="translate(510,29)"/>
<path d="M0 0 C2.981168 0.60978436 5.28438596 1.1149571 7.25390625 3.55078125 C9.95580254 8.20681656 11.14194395 12.17905288 11.1875 17.5 C11.20167969 18.2528125 11.21585938 19.005625 11.23046875 19.78125 C10.97417278 22.24864173 10.22845153 23.86356256 9 26 C8.97421875 25.07058594 8.9484375 24.14117187 8.921875 23.18359375 C8.46929581 13.31942454 7.38407102 7.85663738 0 1 C0 0.67 0 0.34 0 0 Z " fill="#6A6A6A" transform="translate(79,22)"/>
<path d="M0 0 C0.6171875 1.7890625 0.6171875 1.7890625 1 4 C0.02551793 5.75406772 -0.95734489 7.50563529 -2.02734375 9.203125 C-3.20313872 11.12525042 -3.20313872 11.12525042 -3.4375 14.125 C-4.42056347 19.14954664 -8.2629821 21.57763602 -12.3125 24.3125 C-13.199375 24.869375 -14.08625 25.42625 -15 26 C-15.66 25.67 -16.32 25.34 -17 25 C-16.44570312 24.60167969 -15.89140625 24.20335938 -15.3203125 23.79296875 C-14.59585938 23.26316406 -13.87140625 22.73335937 -13.125 22.1875 C-12.40570313 21.66542969 -11.68640625 21.14335938 -10.9453125 20.60546875 C-8.16376238 18.30985209 -7.09185659 16.35329457 -6.1875 12.875 C-4.94777617 8.16808105 -2.46992771 4.1573974 0 0 Z " fill="#707070" transform="translate(96,79)"/>
<path d="M0 0 C0 4.53380579 -1.70868721 8.4949926 -3.125 12.7734375 C-3.92153725 15.71066859 -4.18072705 17.98411734 -4 21 C-0.62294375 20.46274105 2.696686 19.88935377 6 19 C3.2863838 21.83696239 1.99444711 22.95941032 -2.0625 23.125 C-5 23 -5 23 -6 22 C-6.75966148 14.21658317 -6.17663006 8.63347127 -2 2 C-1.34 1.34 -0.68 0.68 0 0 Z " fill="#797979" transform="translate(345,68)"/>
<path d="M0 0 C0.7974855 2.31995782 1.11434828 3.61982909 0.3984375 6 C-1.82693347 10.34881655 -3.83175254 13.22116836 -8 16 C-8.66 15.67 -9.32 15.34 -10 15 C-8.61765196 12.0292809 -6.99846608 9.53050974 -5 6.9375 C-3.24878722 4.65654536 -1.59742149 2.39613223 0 0 Z " fill="#6E6E6E" transform="translate(266,45)"/>
<path d="M0 0 C1.45659096 4.53342773 -0.06598397 7.83393777 -1.6875 12.125 C-2.10153076 13.25699829 -2.10153076 13.25699829 -2.52392578 14.41186523 C-4.57529592 19.98302376 -6.71170814 25.52156008 -9 31 C-10.13715734 27.64995733 -9.86572589 25.78077109 -8.671875 22.48046875 C-8.21361328 21.19366211 -8.21361328 21.19366211 -7.74609375 19.88085938 C-7.41738281 18.99205078 -7.08867187 18.10324219 -6.75 17.1875 C-6.43675781 16.31029297 -6.12351562 15.43308594 -5.80078125 14.52929688 C-4.02690649 9.60881854 -2.11447041 4.783663 0 0 Z " fill="#666666" transform="translate(291,37)"/>
<path d="M0 0 C2.91769927 2.01460187 4.77652046 3.78099356 6.625 6.8125 C6.375 9.125 6.375 9.125 5.625 10.8125 C5.0475 9.69875 4.47 8.585 3.875 7.4375 C2.24999865 4.30356883 0.99007076 2.97905787 -2.375 1.8125 C-4.9834792 1.51835235 -7.51033311 1.30612383 -10.125 1.1875 C-10.82238281 1.14882813 -11.51976563 1.11015625 -12.23828125 1.0703125 C-13.95010818 0.97651376 -15.66251682 0.89343826 -17.375 0.8125 C-11.88382998 -2.36326884 -5.87307199 -2.06645126 0 0 Z " fill="#565656" transform="translate(132.375,58.1875)"/>
<path d="M0 0 C0.99 0 1.98 0 3 0 C4.75390625 2.3359375 4.75390625 2.3359375 6.5625 5.375 C8.96423906 9.43487499 8.96423906 9.43487499 12 13 C10.02 13.99 10.02 13.99 8 15 C6.66121428 12.8782637 5.32884524 10.75294812 4 8.625 C3.6184375 8.02171875 3.236875 7.4184375 2.84375 6.796875 C0 2.2265625 0 2.2265625 0 0 Z " fill="#539C37" transform="translate(475,117)"/>
<path d="M0 0 C0.66 0.33 1.32 0.66 2 1 C2 1.99 2 2.98 2 4 C0.03123367 5.69630313 -1.88673162 7.19536118 -4 8.6875 C-4.57234375 9.10322266 -5.1446875 9.51894531 -5.734375 9.94726562 C-7.14996532 10.97356861 -8.57419631 11.98793399 -10 13 C-10.99 12.34 -11.98 11.68 -13 11 C-12.31292969 10.45730469 -11.62585938 9.91460937 -10.91796875 9.35546875 C-10.01691406 8.64003906 -9.11585938 7.92460938 -8.1875 7.1875 C-7.29417969 6.47980469 -6.40085937 5.77210937 -5.48046875 5.04296875 C-3.52923089 3.43588623 -1.73725024 1.82959577 0 0 Z " fill="#272726" transform="translate(587,99)"/>
<path d="M0 0 C1.6484375 1.01953125 1.6484375 1.01953125 4.0234375 3.20703125 C4.0234375 4.19703125 4.0234375 5.18703125 4.0234375 6.20703125 C3.2809375 5.54703125 2.5384375 4.88703125 1.7734375 4.20703125 C-3.55521188 0.60796735 -10.79698068 1.63167835 -16.84765625 2.7265625 C-17.90146484 2.96439453 -17.90146484 2.96439453 -18.9765625 3.20703125 C-17.9765625 1.20703125 -17.9765625 1.20703125 -15.5390625 0.08203125 C-10.43681466 -1.17115243 -5.00882646 -2.0094699 0 0 Z " fill="#565656" transform="translate(186.9765625,57.79296875)"/>
<path d="M0 0 C-0.99 0 -1.98 0 -3 0 C-3 0.66 -3 1.32 -3 2 C-3.556875 2.1959375 -4.11375 2.391875 -4.6875 2.59375 C-11.26925229 5.17308536 -15.28521787 8.83090268 -20 14 C-21.32750846 15.33913287 -22.65928812 16.67408627 -24 18 C-21.13145442 9.46945609 -13.672571 3.93225269 -6.04296875 -0.3203125 C-3.6198835 -1.12646323 -2.37356404 -0.84274858 0 0 Z " fill="#595959" transform="translate(60,19)"/>
<path d="M0 0 C0 3.62968776 -0.55378827 4.39070749 -3 7 C-6.23973638 9.0424425 -8.02723879 10.10573491 -11.875 9.6875 C-12.57625 9.460625 -13.2775 9.23375 -14 9 C-14 7.35 -14 5.7 -14 4 C-13.01 5.485 -13.01 5.485 -12 7 C-10.37258256 6.21331482 -8.74813869 5.4204759 -7.125 4.625 C-6.22007812 4.18414062 -5.31515625 3.74328125 -4.3828125 3.2890625 C-1.90465528 2.09497301 -1.90465528 2.09497301 0 0 Z " fill="#606060" transform="translate(354,80)"/>
<path d="M0 0 C2 2 2 2 2.3125 4.5625 C1.90939605 8.99664341 0.55024555 12.84755656 -1 17 C-1.33 17 -1.66 17 -2 17 C-2.05441656 15.10448978 -2.09298035 13.2085208 -2.125 11.3125 C-2.14820313 10.25675781 -2.17140625 9.20101562 -2.1953125 8.11328125 C-1.99858729 4.97748141 -1.33057654 2.82354627 0 0 Z " fill="#7A7A7A" transform="translate(382,72)"/>
<path d="M0 0 C0.33 0.66 0.66 1.32 1 2 C-1.61233962 6.89813679 -3.6647431 8.7905081 -8.9609375 10.4765625 C-11.62321351 11.15998201 -14.2731178 11.65913972 -17 12 C-16.67 11.34 -16.34 10.68 -16 10 C-14.68 10 -13.36 10 -12 10 C-12 9.34 -12 8.68 -12 8 C-11.30132812 7.84144531 -10.60265625 7.68289062 -9.8828125 7.51953125 C-4.17712948 6.31216721 -4.17712948 6.31216721 -0.375 2.3125 C-0.25125 1.549375 -0.1275 0.78625 0 0 Z " fill="#7E7E7E" transform="translate(24,94)"/>
<path d="M0 0 C3.63 0 7.26 0 11 0 C10 2 10 2 6.9375 3.125 C5.4834375 3.558125 5.4834375 3.558125 4 4 C3.67 5.65 3.34 7.3 3 9 C-0.0279691 5.59353476 0 4.9819505 0 0 Z " fill="#767676" transform="translate(57,56)"/>
<path d="M0 0 C0.33 0.66 0.66 1.32 1 2 C-4.19455943 9.96215257 -4.19455943 9.96215257 -8 11 C-11.25 11.125 -11.25 11.125 -14 11 C-12.33521879 7.67043758 -8.73710648 6.90160788 -5.4453125 5.4140625 C-2.84462266 3.9101492 -1.60940324 2.50470041 0 0 Z " fill="#5E5E5E" transform="translate(122,78)"/>
<path d="M0 0 C0.33 0 0.66 0 1 0 C0.98839844 1.05960937 0.97679687 2.11921875 0.96484375 3.2109375 C0.95546524 4.59895658 0.94636511 5.98697755 0.9375 7.375 C0.92912109 8.07367188 0.92074219 8.77234375 0.91210938 9.4921875 C0.8164558 13.37295376 0.8164558 13.37295376 2 17 C1.01 17 0.02 17 -1 17 C-2.4241906 14.15161879 -2.16995508 11.67212092 -2.1875 8.5 C-2.20876953 6.75203125 -2.20876953 6.75203125 -2.23046875 4.96875 C-2 2 -2 2 0 0 Z " fill="#7A7A7A" transform="translate(395,89)"/>
<path d="M0 0 C0.33 0 0.66 0 1 0 C1.31594236 5.89759064 0.95972685 10.77423229 -2 16 C-4.6875 18.5 -4.6875 18.5 -7 20 C-5.87548273 17.0280615 -4.77706209 14.66559313 -3 12 C-2.40260055 9.95294775 -1.86590017 7.88766892 -1.375 5.8125 C-0.98441406 4.18248047 -0.98441406 4.18248047 -0.5859375 2.51953125 C-0.39257812 1.68808594 -0.19921875 0.85664062 0 0 Z " fill="#696969" transform="translate(379,81)"/>
<path d="M0 0 C1.02291983 3.0687595 1.01265581 4.87347375 0.875 8.0625 C0.79826175 13.81786887 2.04071931 18.6236405 4 24 C3.01 24 2.02 24 1 24 C-1.19908894 17.12784705 -3.33631439 6.67262878 0 0 Z " fill="#707070" transform="translate(295,85)"/>
<path d="M0 0 C0 0.99 0 1.98 0 3 C-0.969375 3.33 -1.93875 3.66 -2.9375 4 C-6.10721418 5.60746443 -6.10721418 5.60746443 -6.62109375 7.98046875 C-6.85087251 9.97777644 -6.93411797 11.99059814 -7 14 C-7.66 14 -8.32 14 -9 14 C-8.85769192 12.58297487 -8.71099254 11.1663904 -8.5625 9.75 C-8.48128906 8.96109375 -8.40007812 8.1721875 -8.31640625 7.359375 C-8.02365007 5.17635361 -7.57935581 3.1226818 -7 1 C-3.535 0.505 -3.535 0.505 0 0 Z " fill="#606060" transform="translate(386,58)"/>
<path d="M0 0 C0.33 0 0.66 0 1 0 C1.4516605 6.82509193 1.73492707 13.53437431 -3 19 C-5.140625 19.7109375 -5.140625 19.7109375 -7 20 C-6.66226562 19.47792969 -6.32453125 18.95585938 -5.9765625 18.41796875 C-2.33947725 12.4157269 -0.86866924 6.93638869 0 0 Z " fill="#686868" transform="translate(25,80)"/>
<path d="M0 0 C0.99 0 1.98 0 3 0 C3 0.66 3 1.32 3 2 C3.99 2.33 4.98 2.66 6 3 C8.71232939 7.06849409 8.30699887 9.16476784 8 14 C7.34 14.66 6.68 15.32 6 16 C5.67 12.37 5.34 8.74 5 5 C4.34 5 3.68 5 3 5 C3 4.34 3 3.68 3 3 C2.34 3 1.68 3 1 3 C0.67 2.01 0.34 1.02 0 0 Z " fill="#747474" transform="translate(364,61)"/>
<path d="M0 0 C1.051875 0.00773437 2.10375 0.01546875 3.1875 0.0234375 C4.239375 0.01570313 5.29125 0.00796875 6.375 0 C9.1875 0.3984375 9.1875 0.3984375 12.1875 3.3984375 C6.2475 3.3984375 0.3075 3.3984375 -5.8125 3.3984375 C-2.8125 0.3984375 -2.8125 0.3984375 0 0 Z " fill="#6E6E6E" transform="translate(175.8125,58.6015625)"/>
<path d="M0 0 C2.87712066 2.87712066 2.74382482 4.9652409 3 9 C2.51985465 12.05547044 1.81804717 15.0185223 1 18 C0.67 18 0.34 18 0 18 C0 12.06 0 6.12 0 0 Z " fill="#777777" transform="translate(316,27)"/>
<path d="M0 0 C0.66 0.33 1.32 0.66 2 1 C1.2884375 1.495 1.2884375 1.495 0.5625 2 C-1.85791615 5.09813267 -1.68198917 8.12026792 -2 12 C-2.99 11.67 -3.98 11.34 -5 11 C-5.3125 7.75 -5.3125 7.75 -5 4 C-2.5 1.5625 -2.5 1.5625 0 0 Z " fill="#7B7B7B" transform="translate(5,106)"/>
<path d="M0 0 C0.99 0.495 0.99 0.495 2 1 C2 1.99 2 2.98 2 4 C2.58007812 4.04898438 3.16015625 4.09796875 3.7578125 4.1484375 C8.43923092 4.59649405 12.57485459 5.298021 17 7 C17 7.33 17 7.66 17 8 C11.39538469 7.57910004 6.27913453 7.08386889 1 5 C0.67 3.35 0.34 1.7 0 0 Z " fill="#808080" transform="translate(32,96)"/>
<path d="M0 0 C0.33 0 0.66 0 1 0 C1 3.3 1 6.6 1 10 C2.98 10 4.96 10 7 10 C5 12 5 12 1.875 12.125 C0.451875 12.063125 0.451875 12.063125 -1 12 C-1.02712066 10.56260487 -1.04645067 9.12506137 -1.0625 7.6875 C-1.07410156 6.88699219 -1.08570312 6.08648437 -1.09765625 5.26171875 C-1 3 -1 3 0 0 Z " fill="#747474" transform="translate(107,79)"/>
<path d="M0 0 C0.58265625 0.22171875 1.1653125 0.4434375 1.765625 0.671875 C1.146875 0.754375 0.528125 0.836875 -0.109375 0.921875 C-2.39587856 1.45223016 -2.39587856 1.45223016 -3.171875 3.546875 C-4.59281581 6.38875663 -6.47556533 7.21986991 -9.234375 8.671875 C-9.234375 5.671875 -9.234375 5.671875 -7.84375 4.03125 C-7.23015625 3.50015625 -6.6165625 2.9690625 -5.984375 2.421875 C-5.07945312 1.60976563 -5.07945312 1.60976563 -4.15625 0.78125 C-2.234375 -0.328125 -2.234375 -0.328125 0 0 Z " fill="#6F6F6F" transform="translate(345.234375,62.328125)"/>
<path d="M0 0 C0.66 0 1.32 0 2 0 C1.85786703 1.89611434 1.71113093 3.79188394 1.5625 5.6875 C1.48128906 6.74324219 1.40007812 7.79898438 1.31640625 8.88671875 C1.03548319 11.65086297 0.59843148 14.28945741 0 17 C-2.1519437 13.77208445 -2.20086443 12.71599191 -2 9 C-1.67 9 -1.34 9 -1 9 C-0.67 6.03 -0.34 3.06 0 0 Z " fill="#A4A4A4" transform="translate(238,134)"/>
<path d="M0 0 C0.66 0.33 1.32 0.66 2 1 C1.3503125 1.5878125 1.3503125 1.5878125 0.6875 2.1875 C-1.26366224 4.28319278 -2.59010162 6.51589333 -4 9 C-4.99 8.67 -5.98 8.34 -7 8 C-7 7.01 -7 6.02 -7 5 C-5.1875 3.4375 -5.1875 3.4375 -3 2 C-2.01 1.34 -1.02 0.68 0 0 Z " fill="#424F37" transform="translate(485,130)"/>
<path d="M0 0 C-0.33 2.31 -0.66 4.62 -1 7 C-1.33 7 -1.66 7 -2 7 C-2 5.02 -2 3.04 -2 1 C-2.5775 1.350625 -3.155 1.70125 -3.75 2.0625 C-6.35801776 3.14917407 -7.39417629 2.93065133 -10 2 C-6.27511755 -0.66063032 -4.42132508 -1.38955931 0 0 Z " fill="#777777" transform="translate(210,61)"/>
<path d="M0 0 C0.66 0.33 1.32 0.66 2 1 C0.35 4.96 -1.3 8.92 -3 13 C-3.66 13 -4.32 13 -5 13 C-5.33 13.66 -5.66 14.32 -6 15 C-5.54979057 9.14727744 -2.96160773 4.91779881 0 0 Z " fill="#808080" transform="translate(263,26)"/>
<path d="M0 0 C0.66 0 1.32 0 2 0 C0.65365543 4.4062186 -1.19374374 6.43077702 -5 9 C-5.66 9 -6.32 9 -7 9 C-6.6875 7.0625 -6.6875 7.0625 -6 5 C-5.01 4.67 -4.02 4.34 -3 4 C-1.99357052 2.67151309 -0.99307821 1.33849671 0 0 Z " fill="#757575" transform="translate(305,65)"/>
<path d="M0 0 C6.45512034 -0.56131481 11.15439723 1.36536213 17 4 C13.02623171 5.56393356 10.18622097 4.36145292 6.25 3.0625 C4.49429688 2.49208984 4.49429688 2.49208984 2.703125 1.91015625 C1.81109375 1.60980469 0.9190625 1.30945313 0 1 C0 0.67 0 0.34 0 0 Z " fill="#6A6A6A" transform="translate(43,101)"/>
<path d="M0 0 C1.93681161 -0.08107583 3.8745934 -0.13922475 5.8125 -0.1875 C6.89144531 -0.22230469 7.97039062 -0.25710937 9.08203125 -0.29296875 C12 0 12 0 13.88671875 1.51171875 C14.25410156 2.00285156 14.62148437 2.49398438 15 3 C11.92478317 4.53760842 9.65324882 3.36599236 6.375 2.5625 C5.18648438 2.27503906 3.99796875 1.98757812 2.7734375 1.69140625 C1.85820313 1.46324219 0.94296875 1.23507813 0 1 C0 0.67 0 0.34 0 0 Z " fill="#7A7A7A" transform="translate(65,20)"/>
<path d="M0 0 C7.75 0.875 7.75 0.875 10 2 C8 4 8 4 5.8359375 4.1953125 C4.61777344 4.16050781 4.61777344 4.16050781 3.375 4.125 C2.55773438 4.10695313 1.74046875 4.08890625 0.8984375 4.0703125 C0.27195313 4.04710937 -0.35453125 4.02390625 -1 4 C-0.67 2.68 -0.34 1.36 0 0 Z " fill="#575757" transform="translate(58,52)"/>
<path d="M0 0 C0 3.01490557 -0.51952735 4.86864114 -1.5 7.6875 C-1.91765625 8.89986328 -1.91765625 8.89986328 -2.34375 10.13671875 C-2.5603125 10.75160156 -2.776875 11.36648437 -3 12 C-3.66 12 -4.32 12 -5 12 C-5.33 12.99 -5.66 13.98 -6 15 C-6.63076436 9.95388514 -4.54494684 6.2075216 -2 2 C-1.34 1.34 -0.68 0.68 0 0 Z " fill="#808080" transform="translate(345,68)"/>
<path d="M0 0 C-1.4096347 0.70180531 -2.82807641 1.38593958 -4.25 2.0625 C-5.03890625 2.44535156 -5.8278125 2.82820313 -6.640625 3.22265625 C-9.25993522 4.08564091 -10.44855176 3.93045933 -13 3 C-11.5903653 2.29819469 -10.17192359 1.61406042 -8.75 0.9375 C-7.96109375 0.55464844 -7.1721875 0.17179687 -6.359375 -0.22265625 C-3.74006478 -1.08564091 -2.55144824 -0.93045933 0 0 Z " fill="#555555" transform="translate(19,99)"/>
<path d="M0 0 C0.65234375 1.734375 0.65234375 1.734375 1 4 C0.00390625 6.140625 0.00390625 6.140625 -1.4375 8.25 C-1.91058594 8.95640625 -2.38367187 9.6628125 -2.87109375 10.390625 C-3.24363281 10.92171875 -3.61617187 11.4528125 -4 12 C-4.33 11.34 -4.66 10.68 -5 10 C-4.00390625 7.6171875 -4.00390625 7.6171875 -2.5625 4.875 C-1.85287109 3.50988281 -1.85287109 3.50988281 -1.12890625 2.1171875 C-0.75636719 1.41851562 -0.38382813 0.71984375 0 0 Z " fill="#636363" transform="translate(35,37)"/>
<path d="M0 0 C1.10652097 3.31956291 0.95237748 3.88796417 -0.25 7 C-0.62898438 8.0209375 -0.62898438 8.0209375 -1.015625 9.0625 C-2.07347158 11.14461073 -3.27220115 12.44692239 -5 14 C-4.28269264 10.76834156 -3.18684926 7.81292078 -1.9375 4.75 C-1.57527344 3.85796875 -1.21304687 2.9659375 -0.83984375 2.046875 C-0.56269531 1.37140625 -0.28554688 0.6959375 0 0 Z " fill="#797979" transform="translate(270,39)"/>
<path d="M0 0 C0.66 0 1.32 0 2 0 C2 2.97 2 5.94 2 9 C1.34 9 0.68 9 0 9 C0 8.01 0 7.02 0 6 C-0.66 5.67 -1.32 5.34 -2 5 C-1.34 3.35 -0.68 1.7 0 0 Z " fill="#939393" transform="translate(417,93)"/>
<path d="M0 0 C0.66 0.33 1.32 0.66 2 1 C-0.57784846 3.64752004 -2.91648098 5.94432065 -6 8 C-6.99 7.67 -7.98 7.34 -9 7 C-8.43410156 6.57847656 -7.86820312 6.15695313 -7.28515625 5.72265625 C-6.55167969 5.17480469 -5.81820313 4.62695312 -5.0625 4.0625 C-4.33160156 3.51722656 -3.60070312 2.97195312 -2.84765625 2.41015625 C-1.0865547 1.13092062 -1.0865547 1.13092062 0 0 Z " fill="#585858" transform="translate(371,98)"/>
<path d="M0 0 C1 2 1 2 0.25 4.875 C-0.88533421 7.71333554 -2.04083424 9.68462228 -4 12 C-3.45660208 7.43545749 -2.20536179 4.0271824 0 0 Z " fill="#7A7A7A" transform="translate(150,78)"/>
<path d="M0 0 C1.65 0.33 3.3 0.66 5 1 C5.33 2.32 5.66 3.64 6 5 C3.36 4.34 0.72 3.68 -2 3 C-1.34 2.01 -0.68 1.02 0 0 Z " fill="#6E6E6E" transform="translate(316,16)"/>
<path d="M0 0 C0.33 1.32 0.66 2.64 1 4 C-1.97 6.475 -1.97 6.475 -5 9 C-3.50163895 5.88801935 -1.80066242 2.9465385 0 0 Z " fill="#606060" transform="translate(266,45)"/>
</svg>
